<svg width="3469" height="234" viewBox="0 0 3469 234" fill="none" xmlns="http://www.w3.org/2000/svg">
<mask id="path-1-outside-1_0_1" maskUnits="userSpaceOnUse" x="-5" y="-2" width="855" height="197" fill="black">
<rect fill="white" x="-5" y="-2" width="855" height="197"/>
<path d="M62.3009 187V38.2459H0.562718V14.599H160.034V38.2459H98.2955V187H62.3009ZM184.263 187V3.06673H218.743V83.2099C224.956 73.3473 231.829 66.3969 239.361 62.3587C246.894 58.2428 254.544 56.1849 262.309 56.1849C272.405 56.1849 281.064 59.4465 288.286 65.9698C295.586 72.4154 299.236 82.6275 299.236 96.6059V187H264.756V105.11C264.756 98.1203 264.096 93.3831 262.775 90.8981C261.533 88.413 259.786 86.5492 257.533 85.3067C255.359 83.9865 252.913 83.3264 250.195 83.3264C245.458 83.3264 240.526 84.9184 235.401 88.1024C230.275 91.2087 224.723 97.3437 218.743 106.507V187H184.263ZM341.055 187V59.0971H375.535V83.2099C379.651 74.9782 385.281 68.416 392.426 63.5236C399.57 58.6311 407.53 56.1849 416.305 56.1849C418.402 56.1849 420.538 56.4179 422.712 56.8838V87.6364C417.897 85.8503 413.354 84.9572 409.083 84.9572C402.249 84.9572 396.037 86.7045 390.445 90.1991C384.854 93.6161 379.884 98.8192 375.535 105.808V187H341.055ZM553.76 182.69C537.375 187.505 521.843 189.912 507.166 189.912C493.265 189.912 481.072 187.349 470.589 182.224C460.182 177.021 452.145 168.944 446.476 157.995C440.884 146.967 438.089 135.008 438.089 122.117C438.089 110.157 440.457 99.1298 445.194 89.0343C450.009 78.8611 456.96 70.8623 466.046 65.0379C475.209 59.1359 486.47 56.1849 499.827 56.1849C516.213 56.1849 529.298 61.388 539.083 71.7942C548.868 82.2004 553.76 101.576 553.76 129.921H474.433C475.209 138.541 477.151 145.336 480.257 150.307C483.441 155.277 487.712 159.237 493.071 162.188C498.429 165.062 505.612 166.498 514.621 166.498C526.192 166.498 539.238 163.819 553.76 158.461V182.69ZM473.967 110.468H519.863C519.863 98.7415 517.882 90.3545 513.922 85.3067C510.039 80.2589 504.991 77.735 498.778 77.735C492.022 77.735 486.47 80.5307 482.121 86.1221C477.772 91.6358 475.054 99.7511 473.967 110.468ZM652.076 173.255C647.105 178.069 642.795 181.525 639.146 183.622C635.496 185.719 631.69 187.272 627.73 188.281C623.769 189.369 619.576 189.912 615.149 189.912C603.733 189.912 594.57 186.379 587.658 179.312C580.824 172.167 577.407 163.431 577.407 153.102C577.407 140.522 582.533 130.038 592.784 121.651C603.112 113.186 619.809 108.954 642.873 108.954H652.076V97.3049C652.076 89.4614 649.901 84.1806 645.552 81.4626C641.203 78.7446 635.69 77.3856 629.011 77.3856C615.809 77.3856 602.336 81.1908 588.59 88.8013V65.0379C604.199 59.1359 619.731 56.1849 635.185 56.1849C644.659 56.1849 653.124 57.4662 660.579 60.029C668.034 62.5917 673.975 66.5911 678.402 72.0271C682.906 77.3856 685.158 85.4232 685.158 96.14V152.753C685.158 159.664 686.206 163.897 688.303 165.45C690.478 167.003 692.613 167.78 694.71 167.78C695.952 167.78 697.506 167.624 699.369 167.314L700.185 186.651C692.885 188.825 686.4 189.912 680.731 189.912C674.363 189.912 668.85 188.864 664.19 186.767C659.608 184.593 656.075 180.088 653.59 173.255H652.076ZM652.076 154.733V128.756H643.921C632.661 128.756 624.274 130.776 618.76 134.814C613.247 138.774 610.49 143.744 610.49 149.724C610.49 154.617 612.159 158.655 615.499 161.839C618.838 164.945 622.76 166.498 627.264 166.498C631.302 166.498 635.379 165.528 639.495 163.586C643.689 161.567 647.882 158.616 652.076 154.733ZM810.149 187V162.887C805.722 171.895 800.014 178.652 793.025 183.156C786.113 187.66 777.882 189.912 768.33 189.912C752.643 189.912 740.489 184.127 731.869 172.556C723.249 160.907 718.939 145.569 718.939 126.543C718.939 106.43 723.754 89.6944 733.384 76.3372C743.013 62.9023 756.448 56.1849 773.688 56.1849C778.348 56.1849 782.619 56.6897 786.502 57.6992C790.385 58.6311 794.112 60.1066 797.685 62.1257C801.257 64.1448 805.412 67.4453 810.149 72.0271V3.06673H844.745V187H810.149ZM810.149 92.5289C805.334 87.0928 800.791 83.4041 796.52 81.4626C792.248 79.5212 787.9 78.5504 783.473 78.5504C774.154 78.5504 767.165 83.0546 762.505 92.0629C757.924 100.994 755.633 111.516 755.633 123.631C755.633 135.59 757.768 145.142 762.039 152.287C766.388 159.354 772.64 162.887 780.794 162.887C785.997 162.887 791.122 161.101 796.17 157.529C801.296 153.879 805.955 149.103 810.149 143.201V92.5289Z"/>
</mask>
<path d="M62.3009 187V38.2459H0.562718V14.599H160.034V38.2459H98.2955V187H62.3009ZM184.263 187V3.06673H218.743V83.2099C224.956 73.3473 231.829 66.3969 239.361 62.3587C246.894 58.2428 254.544 56.1849 262.309 56.1849C272.405 56.1849 281.064 59.4465 288.286 65.9698C295.586 72.4154 299.236 82.6275 299.236 96.6059V187H264.756V105.11C264.756 98.1203 264.096 93.3831 262.775 90.8981C261.533 88.413 259.786 86.5492 257.533 85.3067C255.359 83.9865 252.913 83.3264 250.195 83.3264C245.458 83.3264 240.526 84.9184 235.401 88.1024C230.275 91.2087 224.723 97.3437 218.743 106.507V187H184.263ZM341.055 187V59.0971H375.535V83.2099C379.651 74.9782 385.281 68.416 392.426 63.5236C399.57 58.6311 407.53 56.1849 416.305 56.1849C418.402 56.1849 420.538 56.4179 422.712 56.8838V87.6364C417.897 85.8503 413.354 84.9572 409.083 84.9572C402.249 84.9572 396.037 86.7045 390.445 90.1991C384.854 93.6161 379.884 98.8192 375.535 105.808V187H341.055ZM553.76 182.69C537.375 187.505 521.843 189.912 507.166 189.912C493.265 189.912 481.072 187.349 470.589 182.224C460.182 177.021 452.145 168.944 446.476 157.995C440.884 146.967 438.089 135.008 438.089 122.117C438.089 110.157 440.457 99.1298 445.194 89.0343C450.009 78.8611 456.96 70.8623 466.046 65.0379C475.209 59.1359 486.47 56.1849 499.827 56.1849C516.213 56.1849 529.298 61.388 539.083 71.7942C548.868 82.2004 553.76 101.576 553.76 129.921H474.433C475.209 138.541 477.151 145.336 480.257 150.307C483.441 155.277 487.712 159.237 493.071 162.188C498.429 165.062 505.612 166.498 514.621 166.498C526.192 166.498 539.238 163.819 553.76 158.461V182.69ZM473.967 110.468H519.863C519.863 98.7415 517.882 90.3545 513.922 85.3067C510.039 80.2589 504.991 77.735 498.778 77.735C492.022 77.735 486.47 80.5307 482.121 86.1221C477.772 91.6358 475.054 99.7511 473.967 110.468ZM652.076 173.255C647.105 178.069 642.795 181.525 639.146 183.622C635.496 185.719 631.69 187.272 627.73 188.281C623.769 189.369 619.576 189.912 615.149 189.912C603.733 189.912 594.57 186.379 587.658 179.312C580.824 172.167 577.407 163.431 577.407 153.102C577.407 140.522 582.533 130.038 592.784 121.651C603.112 113.186 619.809 108.954 642.873 108.954H652.076V97.3049C652.076 89.4614 649.901 84.1806 645.552 81.4626C641.203 78.7446 635.69 77.3856 629.011 77.3856C615.809 77.3856 602.336 81.1908 588.59 88.8013V65.0379C604.199 59.1359 619.731 56.1849 635.185 56.1849C644.659 56.1849 653.124 57.4662 660.579 60.029C668.034 62.5917 673.975 66.5911 678.402 72.0271C682.906 77.3856 685.158 85.4232 685.158 96.14V152.753C685.158 159.664 686.206 163.897 688.303 165.45C690.478 167.003 692.613 167.78 694.71 167.78C695.952 167.78 697.506 167.624 699.369 167.314L700.185 186.651C692.885 188.825 686.4 189.912 680.731 189.912C674.363 189.912 668.85 188.864 664.19 186.767C659.608 184.593 656.075 180.088 653.59 173.255H652.076ZM652.076 154.733V128.756H643.921C632.661 128.756 624.274 130.776 618.76 134.814C613.247 138.774 610.49 143.744 610.49 149.724C610.49 154.617 612.159 158.655 615.499 161.839C618.838 164.945 622.76 166.498 627.264 166.498C631.302 166.498 635.379 165.528 639.495 163.586C643.689 161.567 647.882 158.616 652.076 154.733ZM810.149 187V162.887C805.722 171.895 800.014 178.652 793.025 183.156C786.113 187.66 777.882 189.912 768.33 189.912C752.643 189.912 740.489 184.127 731.869 172.556C723.249 160.907 718.939 145.569 718.939 126.543C718.939 106.43 723.754 89.6944 733.384 76.3372C743.013 62.9023 756.448 56.1849 773.688 56.1849C778.348 56.1849 782.619 56.6897 786.502 57.6992C790.385 58.6311 794.112 60.1066 797.685 62.1257C801.257 64.1448 805.412 67.4453 810.149 72.0271V3.06673H844.745V187H810.149ZM810.149 92.5289C805.334 87.0928 800.791 83.4041 796.52 81.4626C792.248 79.5212 787.9 78.5504 783.473 78.5504C774.154 78.5504 767.165 83.0546 762.505 92.0629C757.924 100.994 755.633 111.516 755.633 123.631C755.633 135.59 757.768 145.142 762.039 152.287C766.388 159.354 772.64 162.887 780.794 162.887C785.997 162.887 791.122 161.101 796.17 157.529C801.296 153.879 805.955 149.103 810.149 143.201V92.5289Z" fill="#DCA413"/>
<path d="M62.3009 187H57.3009V192H62.3009V187ZM62.3009 38.2459H67.3009V33.2459H62.3009V38.2459ZM0.562718 38.2459H-4.43728V43.2459H0.562718V38.2459ZM0.562718 14.599V9.59896H-4.43728V14.599H0.562718ZM160.034 14.599H165.034V9.59896H160.034V14.599ZM160.034 38.2459V43.2459H165.034V38.2459H160.034ZM98.2955 38.2459V33.2459H93.2955V38.2459H98.2955ZM98.2955 187V192H103.295V187H98.2955ZM67.3009 187V38.2459H57.3009V187H67.3009ZM62.3009 33.2459H0.562718V43.2459H62.3009V33.2459ZM5.56272 38.2459V14.599H-4.43728V38.2459H5.56272ZM0.562718 19.599H160.034V9.59896H0.562718V19.599ZM155.034 14.599V38.2459H165.034V14.599H155.034ZM160.034 33.2459H98.2955V43.2459H160.034V33.2459ZM93.2955 38.2459V187H103.295V38.2459H93.2955ZM98.2955 182H62.3009V192H98.2955V182ZM184.263 187H179.263V192H184.263V187ZM184.263 3.06673V-1.93327H179.263V3.06673H184.263ZM218.743 3.06673H223.743V-1.93327H218.743V3.06673ZM218.743 83.2099H213.743V100.528L222.974 85.8749L218.743 83.2099ZM239.361 62.3587L241.724 66.7654L241.741 66.756L241.759 66.7465L239.361 62.3587ZM288.286 65.9698L284.935 69.6803L284.956 69.6992L284.977 69.7178L288.286 65.9698ZM299.236 187V192H304.236V187H299.236ZM264.756 187H259.756V192H264.756V187ZM262.775 90.8981L258.303 93.1341L258.331 93.1893L258.36 93.2438L262.775 90.8981ZM257.533 85.3067L254.939 89.5806L255.027 89.6345L255.118 89.6846L257.533 85.3067ZM235.401 88.1024L237.992 92.3784L238.016 92.3641L238.039 92.3496L235.401 88.1024ZM218.743 106.507L214.556 103.775L213.743 105.02V106.507H218.743ZM218.743 187V192H223.743V187H218.743ZM189.263 187V3.06673H179.263V187H189.263ZM184.263 8.06673H218.743V-1.93327H184.263V8.06673ZM213.743 3.06673V83.2099H223.743V3.06673H213.743ZM222.974 85.8749C228.886 76.4896 235.182 70.2724 241.724 66.7654L236.999 57.952C228.475 62.5214 221.026 70.2051 214.513 80.545L222.974 85.8749ZM241.759 66.7465C248.636 62.9891 255.467 61.1849 262.309 61.1849V51.1849C253.62 51.1849 245.153 53.4966 236.964 57.971L241.759 66.7465ZM262.309 61.1849C271.218 61.1849 278.668 64.0205 284.935 69.6803L291.638 62.2593C283.459 54.8726 273.592 51.1849 262.309 51.1849V61.1849ZM284.977 69.7178C290.8 74.86 294.236 83.4211 294.236 96.6059H304.236C304.236 81.8338 300.372 69.9709 291.596 62.2218L284.977 69.7178ZM294.236 96.6059V187H304.236V96.6059H294.236ZM299.236 182H264.756V192H299.236V182ZM269.756 187V105.11H259.756V187H269.756ZM269.756 105.11C269.756 101.479 269.586 98.2998 269.213 95.6247C268.85 93.0236 268.252 90.5493 267.191 88.5523L258.36 93.2438C258.619 93.7319 259.011 94.8687 259.308 97.0048C259.596 99.0668 259.756 101.751 259.756 105.11H269.756ZM267.248 88.662C265.59 85.3475 263.159 82.7002 259.949 80.9288L255.118 89.6846C256.412 90.3983 257.475 91.4785 258.303 93.1341L267.248 88.662ZM260.128 81.0327C257.118 79.2049 253.763 78.3264 250.195 78.3264V88.3264C252.063 88.3264 253.6 88.7681 254.939 89.5806L260.128 81.0327ZM250.195 78.3264C244.301 78.3264 238.466 80.3123 232.762 83.8552L238.039 92.3496C242.587 89.5245 246.614 88.3264 250.195 88.3264V78.3264ZM232.809 83.8264C226.711 87.5221 220.661 94.4193 214.556 103.775L222.931 109.24C228.785 100.268 233.839 94.8953 237.992 92.3784L232.809 83.8264ZM213.743 106.507V187H223.743V106.507H213.743ZM218.743 182H184.263V192H218.743V182ZM341.055 187H336.055V192H341.055V187ZM341.055 59.0971V54.0971H336.055V59.0971H341.055ZM375.535 59.0971H380.535V54.0971H375.535V59.0971ZM375.535 83.2099H370.535L380.007 85.446L375.535 83.2099ZM422.712 56.8838H427.712V52.8417L423.76 51.9948L422.712 56.8838ZM422.712 87.6364L420.973 92.3243L427.712 94.8242V87.6364H422.712ZM390.445 90.1991L393.053 94.4656L393.074 94.4525L393.095 94.4391L390.445 90.1991ZM375.535 105.808L371.29 103.167L370.535 104.38V105.808H375.535ZM375.535 187V192H380.535V187H375.535ZM346.055 187V59.0971H336.055V187H346.055ZM341.055 64.0971H375.535V54.0971H341.055V64.0971ZM370.535 59.0971V83.2099H380.535V59.0971H370.535ZM380.007 85.446C383.768 77.9243 388.851 72.0315 395.251 67.649L389.601 59.3981C381.711 64.8006 375.534 72.032 371.063 80.9738L380.007 85.446ZM395.251 67.649C401.551 63.3344 408.524 61.1849 416.305 61.1849V51.1849C406.536 51.1849 397.589 53.9279 389.601 59.3981L395.251 67.649ZM416.305 61.1849C418.03 61.1849 419.814 61.3762 421.665 61.7728L423.76 51.9948C421.262 51.4595 418.775 51.1849 416.305 51.1849V61.1849ZM417.712 56.8838V87.6364H427.712V56.8838H417.712ZM424.451 82.9486C419.189 80.9966 414.055 79.9572 409.083 79.9572V89.9572C412.654 89.9572 416.605 90.704 420.973 92.3243L424.451 82.9486ZM409.083 79.9572C401.348 79.9572 394.211 81.9492 387.795 85.9592L393.095 94.4391C397.862 91.4599 403.151 89.9572 409.083 89.9572V79.9572ZM387.838 85.9327C381.433 89.8469 375.947 95.6812 371.29 103.167L379.78 108.45C383.82 101.957 388.275 97.3853 393.053 94.4656L387.838 85.9327ZM370.535 105.808V187H380.535V105.808H370.535ZM375.535 182H341.055V192H375.535V182ZM553.76 182.69L555.17 187.487L558.76 186.432V182.69H553.76ZM470.589 182.224L468.352 186.696L468.372 186.706L468.392 186.716L470.589 182.224ZM446.476 157.995L442.016 160.256L442.026 160.275L442.035 160.294L446.476 157.995ZM445.194 89.0343L440.675 86.8953L440.671 86.9028L440.668 86.9103L445.194 89.0343ZM466.046 65.0379L468.744 69.2473L468.753 69.2415L466.046 65.0379ZM553.76 129.921V134.921H558.76V129.921H553.76ZM474.433 129.921V124.921H468.962L469.453 130.37L474.433 129.921ZM480.257 150.307L476.017 152.957L476.032 152.98L476.047 153.004L480.257 150.307ZM493.071 162.188L490.659 166.568L490.683 166.581L490.708 166.595L493.071 162.188ZM553.76 158.461H558.76V151.286L552.03 153.77L553.76 158.461ZM473.967 110.468L468.992 109.963L468.434 115.468H473.967V110.468ZM519.863 110.468V115.468H524.863V110.468H519.863ZM513.922 85.3067L509.959 88.3552L509.973 88.3742L509.988 88.3931L513.922 85.3067ZM482.121 86.1221L486.047 89.2185L486.057 89.2052L486.068 89.1918L482.121 86.1221ZM552.351 177.893C536.35 182.595 521.295 184.912 507.166 184.912V194.912C522.391 194.912 538.399 192.415 555.17 187.487L552.351 177.893ZM507.166 184.912C493.882 184.912 482.466 182.465 472.785 177.732L468.392 186.716C479.679 192.234 492.648 194.912 507.166 194.912V184.912ZM472.825 177.752C463.423 173.051 456.13 165.766 450.916 155.696L442.035 160.294C448.16 172.123 456.942 180.991 468.352 186.696L472.825 177.752ZM450.935 155.734C445.714 145.437 443.089 134.257 443.089 122.117H433.089C433.089 135.759 436.054 148.497 442.016 160.256L450.935 155.734ZM443.089 122.117C443.089 110.837 445.318 100.542 449.721 91.1582L440.668 86.9103C435.597 97.7178 433.089 109.477 433.089 122.117H443.089ZM449.714 91.1732C454.146 81.8091 460.482 74.5436 468.744 69.2473L463.347 60.8285C453.437 67.181 445.873 75.913 440.675 86.8953L449.714 91.1732ZM468.753 69.2415C476.944 63.9658 487.212 61.1849 499.827 61.1849V51.1849C485.727 51.1849 473.474 54.306 463.338 60.8343L468.753 69.2415ZM499.827 61.1849C515.056 61.1849 526.743 65.9694 535.44 75.2193L542.726 68.369C531.853 56.8066 517.37 51.1849 499.827 51.1849V61.1849ZM535.44 75.2193C543.821 84.1322 548.76 101.767 548.76 129.921H558.76C558.76 101.385 553.915 80.2685 542.726 68.369L535.44 75.2193ZM553.76 124.921H474.433V134.921H553.76V124.921ZM469.453 130.37C470.269 139.428 472.344 147.08 476.017 152.957L484.497 147.657C481.957 143.593 480.15 137.655 479.412 129.473L469.453 130.37ZM476.047 153.004C479.697 158.702 484.597 163.23 490.659 166.568L495.483 157.808C490.827 155.244 487.185 151.851 484.467 147.609L476.047 153.004ZM490.708 166.595C497.059 170.001 505.155 171.498 514.621 171.498V161.498C506.07 161.498 499.799 160.123 495.433 157.782L490.708 166.595ZM514.621 171.498C526.945 171.498 540.591 168.65 555.491 163.151L552.03 153.77C537.886 158.989 525.439 161.498 514.621 161.498V171.498ZM548.76 158.461V182.69H558.76V158.461H548.76ZM473.967 115.468H519.863V105.468H473.967V115.468ZM524.863 110.468C524.863 98.4356 522.881 88.6253 517.855 82.2202L509.988 88.3931C512.884 92.0836 514.863 99.0475 514.863 110.468H524.863ZM517.885 82.2581C513.083 76.0161 506.588 72.735 498.778 72.735V82.735C503.394 82.735 506.994 84.5017 509.959 88.3552L517.885 82.2581ZM498.778 72.735C490.394 72.735 483.417 76.3116 478.174 83.0524L486.068 89.1918C489.522 84.7498 493.65 82.735 498.778 82.735V72.735ZM478.195 83.0257C473.022 89.5848 470.128 98.768 468.992 109.963L478.941 110.973C479.98 100.734 482.522 93.6869 486.047 89.2185L478.195 83.0257ZM652.076 173.255V168.255H650.051L648.597 169.663L652.076 173.255ZM627.73 188.281L626.495 183.436L626.45 183.448L626.406 183.46L627.73 188.281ZM587.658 179.312L584.045 182.768L584.064 182.788L584.084 182.808L587.658 179.312ZM592.784 121.651L595.95 125.52L595.953 125.518L592.784 121.651ZM652.076 108.954V113.954H657.076V108.954H652.076ZM588.59 88.8013H583.59V97.2849L591.012 93.1756L588.59 88.8013ZM588.59 65.0379L586.822 60.3611L583.59 61.583V65.0379H588.59ZM678.402 72.0271L674.525 75.1843L674.549 75.2145L674.574 75.2444L678.402 72.0271ZM688.303 165.45L685.327 169.468L685.362 169.493L685.397 169.519L688.303 165.45ZM699.369 167.314L704.365 167.103L704.127 161.452L698.547 162.382L699.369 167.314ZM700.185 186.651L701.612 191.442L705.344 190.331L705.18 186.44L700.185 186.651ZM664.19 186.767L662.047 191.284L662.092 191.306L662.138 191.327L664.19 186.767ZM653.59 173.255L658.289 171.546L657.092 168.255H653.59V173.255ZM652.076 154.733L655.473 158.402L657.076 156.918V154.733H652.076ZM652.076 128.756H657.076V123.756H652.076V128.756ZM618.76 134.814L621.677 138.875L621.696 138.861L621.715 138.848L618.76 134.814ZM615.499 161.839L612.048 165.457L612.071 165.479L612.093 165.5L615.499 161.839ZM639.495 163.586L641.628 168.108L641.646 168.1L641.664 168.091L639.495 163.586ZM648.597 169.663C643.76 174.349 639.791 177.485 636.655 179.286L641.636 187.957C645.8 185.565 650.451 181.789 655.555 176.846L648.597 169.663ZM636.655 179.286C633.387 181.164 630.003 182.542 626.495 183.436L628.965 193.126C633.378 192.001 637.605 190.273 641.636 187.957L636.655 179.286ZM626.406 183.46C622.909 184.42 619.163 184.912 615.149 184.912V194.912C619.988 194.912 624.629 194.317 629.053 193.103L626.406 183.46ZM615.149 184.912C604.852 184.912 597.056 181.77 591.233 175.816L584.084 182.808C592.083 190.987 602.615 194.912 615.149 194.912V184.912ZM591.271 175.856C585.371 169.687 582.407 162.207 582.407 153.102H572.407C572.407 164.655 576.278 174.648 584.045 182.768L591.271 175.856ZM582.407 153.102C582.407 142.11 586.789 133.016 595.95 125.52L589.617 117.781C578.276 127.06 572.407 138.933 572.407 153.102H582.407ZM595.953 125.518C604.937 118.155 620.203 113.954 642.873 113.954V103.954C619.414 103.954 601.287 108.217 589.614 117.783L595.953 125.518ZM642.873 113.954H652.076V103.954H642.873V113.954ZM657.076 108.954V97.3049H647.076V108.954H657.076ZM657.076 97.3049C657.076 88.7074 654.68 81.2713 648.202 77.2226L642.902 85.7026C645.122 87.09 647.076 90.2154 647.076 97.3049H657.076ZM648.202 77.2226C642.852 73.8787 636.349 72.3856 629.011 72.3856V82.3856C635.031 82.3856 639.555 83.6105 642.902 85.7026L648.202 77.2226ZM629.011 72.3856C614.814 72.3856 600.514 76.4841 586.168 84.427L591.012 93.1756C604.157 85.8975 616.804 82.3856 629.011 82.3856V72.3856ZM593.59 88.8013V65.0379H583.59V88.8013H593.59ZM590.358 69.7148C605.448 64.0093 620.382 61.1849 635.185 61.1849V51.1849C619.08 51.1849 602.951 54.2625 586.822 60.3611L590.358 69.7148ZM635.185 61.1849C644.214 61.1849 652.115 62.4066 658.954 64.7574L662.205 55.3005C654.133 52.5259 645.104 51.1849 635.185 51.1849V61.1849ZM658.954 64.7574C665.639 67.0556 670.758 70.5592 674.525 75.1843L682.279 68.87C677.192 62.623 670.429 58.1278 662.205 55.3005L658.954 64.7574ZM674.574 75.2444C678.009 79.3311 680.158 86.0026 680.158 96.14H690.158C690.158 84.8438 687.802 75.44 682.229 68.8099L674.574 75.2444ZM680.158 96.14V152.753H690.158V96.14H680.158ZM680.158 152.753C680.158 156.407 680.43 159.644 681.091 162.313C681.722 164.861 682.897 167.667 685.327 169.468L691.279 161.432C691.613 161.679 691.215 161.593 690.798 159.909C690.41 158.345 690.158 156.01 690.158 152.753H680.158ZM685.397 169.519C688.186 171.511 691.317 172.78 694.71 172.78V162.78C693.909 162.78 692.769 162.495 691.209 161.381L685.397 169.519ZM694.71 172.78C696.33 172.78 698.18 172.581 700.191 172.246L698.547 162.382C696.831 162.668 695.574 162.78 694.71 162.78V172.78ZM694.374 167.524L695.189 186.861L705.18 186.44L704.365 167.103L694.374 167.524ZM698.757 181.859C691.773 183.939 685.784 184.912 680.731 184.912V194.912C687.017 194.912 693.997 193.711 701.612 191.442L698.757 181.859ZM680.731 184.912C674.902 184.912 670.118 183.952 666.242 182.207L662.138 191.327C667.581 193.776 673.825 194.912 680.731 194.912V184.912ZM666.334 182.25C663.373 180.845 660.52 177.682 658.289 171.546L648.891 174.963C651.63 182.495 655.844 188.341 662.047 191.284L666.334 182.25ZM653.59 168.255H652.076V178.255H653.59V168.255ZM657.076 154.733V128.756H647.076V154.733H657.076ZM652.076 123.756H643.921V133.756H652.076V123.756ZM643.921 123.756C632.226 123.756 622.573 125.824 615.806 130.78L621.715 138.848C625.975 135.727 633.096 133.756 643.921 133.756V123.756ZM615.843 130.753C609.226 135.506 605.49 141.899 605.49 149.724H615.49C615.49 145.59 617.267 142.042 621.677 138.875L615.843 130.753ZM605.49 149.724C605.49 155.892 607.654 161.268 612.048 165.457L618.949 158.22C616.664 156.042 615.49 153.341 615.49 149.724H605.49ZM612.093 165.5C616.345 169.455 621.479 171.498 627.264 171.498V161.498C624.041 161.498 621.331 160.436 618.904 158.178L612.093 165.5ZM627.264 171.498C632.128 171.498 636.93 170.324 641.628 168.108L637.362 159.064C633.828 160.731 630.476 161.498 627.264 161.498V171.498ZM641.664 168.091C646.395 165.813 650.994 162.549 655.473 158.402L648.679 151.064C644.77 154.683 640.982 157.321 637.326 159.081L641.664 168.091ZM810.149 187H805.149V192H810.149V187ZM810.149 162.887H815.149L805.661 160.682L810.149 162.887ZM793.025 183.156L790.317 178.953L790.306 178.96L790.295 178.967L793.025 183.156ZM731.869 172.556L727.85 175.53L727.855 175.536L727.86 175.543L731.869 172.556ZM733.384 76.3372L737.44 79.2612L737.448 79.25L733.384 76.3372ZM786.502 57.6992L785.244 62.5383L785.289 62.5502L785.335 62.5612L786.502 57.6992ZM810.149 72.0271L806.673 75.6211L815.149 83.8193V72.0271H810.149ZM810.149 3.06673V-1.93327H805.149V3.06673H810.149ZM844.745 3.06673H849.745V-1.93327H844.745V3.06673ZM844.745 187V192H849.745V187H844.745ZM810.149 92.5289H815.149V90.633L813.892 89.2137L810.149 92.5289ZM762.505 92.0629L758.064 89.7658L758.061 89.7732L758.057 89.7806L762.505 92.0629ZM762.039 152.287L757.748 154.852L757.764 154.88L757.781 154.907L762.039 152.287ZM796.17 157.529L799.059 161.61L799.065 161.606L799.071 161.602L796.17 157.529ZM810.149 143.201L814.225 146.097L815.149 144.796V143.201H810.149ZM815.149 187V162.887H805.149V187H815.149ZM805.661 160.682C801.552 169.045 796.398 175.034 790.317 178.953L795.734 187.359C803.631 182.27 809.892 174.746 814.636 165.092L805.661 160.682ZM790.295 178.967C784.318 182.862 777.069 184.912 768.33 184.912V194.912C778.694 194.912 787.909 192.458 795.755 187.345L790.295 178.967ZM768.33 184.912C754.063 184.912 743.464 179.75 735.879 169.569L727.86 175.543C737.515 188.503 751.223 194.912 768.33 194.912V184.912ZM735.888 169.581C728.079 159.028 723.939 144.833 723.939 126.543H713.939C713.939 146.306 718.419 162.786 727.85 175.53L735.888 169.581ZM723.939 126.543C723.939 107.243 728.549 91.5932 737.439 79.2612L729.328 73.4132C718.959 87.7955 713.939 105.617 713.939 126.543H723.939ZM737.448 79.25C746.091 67.1904 757.978 61.1849 773.688 61.1849V51.1849C754.918 51.1849 739.935 58.6142 729.32 73.4243L737.448 79.25ZM773.688 61.1849C777.99 61.1849 781.831 61.6511 785.244 62.5383L787.76 52.8601C783.406 51.7282 778.706 51.1849 773.688 51.1849V61.1849ZM785.335 62.5612C788.753 63.3814 792.046 64.6822 795.224 66.4785L800.145 57.7729C796.179 55.5311 792.017 53.8808 787.669 52.8373L785.335 62.5612ZM795.224 66.4785C798.273 68.202 802.08 71.1793 806.673 75.6211L813.625 68.4332C808.743 63.7113 804.24 60.0877 800.145 57.7729L795.224 66.4785ZM815.149 72.0271V3.06673H805.149V72.0271H815.149ZM810.149 8.06673H844.745V-1.93327H810.149V8.06673ZM839.745 3.06673V187H849.745V3.06673H839.745ZM844.745 182H810.149V192H844.745V182ZM813.892 89.2137C808.84 83.5108 803.752 79.2575 798.589 76.9108L794.451 86.0144C797.83 87.5506 801.827 90.6748 806.406 95.8441L813.892 89.2137ZM798.589 76.9108C793.707 74.692 788.656 73.5504 783.473 73.5504V83.5504C787.144 83.5504 790.79 84.3503 794.451 86.0144L798.589 76.9108ZM783.473 73.5504C777.973 73.5504 772.931 74.8919 768.533 77.7257C764.159 80.5445 760.708 84.6557 758.064 89.7658L766.947 94.3601C768.963 90.4619 771.335 87.8167 773.95 86.1314C776.542 84.461 779.655 83.5504 783.473 83.5504V73.5504ZM758.057 89.7806C753.045 99.5492 750.633 110.885 750.633 123.631H760.633C760.633 112.147 762.802 102.438 766.954 94.3453L758.057 89.7806ZM750.633 123.631C750.633 136.121 752.853 146.665 757.748 154.852L766.331 149.721C762.683 143.619 760.633 135.059 760.633 123.631H750.633ZM757.781 154.907C763.02 163.421 770.866 167.887 780.794 167.887V157.887C774.413 157.887 769.756 155.286 766.298 149.666L757.781 154.907ZM780.794 167.887C787.215 167.887 793.329 165.665 799.059 161.61L793.282 153.447C788.916 156.537 784.779 157.887 780.794 157.887V167.887ZM799.071 161.602C804.714 157.583 809.756 152.387 814.225 146.097L806.073 140.305C802.155 145.819 797.878 150.175 793.27 153.456L799.071 161.602ZM815.149 143.201V92.5289H805.149V143.201H815.149Z" fill="#1B1B1B" mask="url(#path-1-outside-1_0_1)"/>
<mask id="path-3-outside-2_0_1" maskUnits="userSpaceOnUse" x="1971" y="-5" width="1506" height="244" fill="black">
<rect fill="white" x="1971" y="-5" width="1506" height="244"/>
<path d="M1976.88 185.486V155.898C1990.16 161.489 2000.06 164.829 2006.59 165.916C2013.19 167.003 2019.24 167.547 2024.76 167.547C2034.7 167.547 2042.11 165.295 2047.01 160.79C2051.9 156.286 2054.35 150.889 2054.35 144.599C2054.35 139.784 2053.03 135.435 2050.39 131.552C2047.74 127.747 2041.07 122.816 2030.35 116.758L2018.82 110.351C2002.35 101.11 1991.21 92.5677 1985.39 84.7242C1979.48 76.8808 1976.53 67.7948 1976.53 57.4662C1976.53 44.4973 1981.42 33.3922 1991.21 24.1509C2001.07 14.9096 2015.21 10.2889 2033.61 10.2889C2047.36 10.2889 2062.85 12.2692 2080.09 16.2298V43.8372C2062.54 37.2363 2048.6 33.9358 2038.27 33.9358C2029.73 33.9358 2023.2 35.8385 2018.7 39.6437C2014.27 43.3713 2012.06 47.8755 2012.06 53.1562C2012.06 57.1944 2013.38 60.9609 2016.02 64.4555C2018.58 67.9501 2025.22 72.7261 2035.94 78.7834L2048.29 85.6561C2067.16 96.2953 2079.2 105.537 2084.4 113.38C2089.52 121.301 2092.09 130.193 2092.09 140.056C2092.09 154.189 2086.73 166.265 2076.01 176.283C2065.37 186.301 2048.4 191.31 2025.11 191.31C2011.28 191.31 1995.21 189.369 1976.88 185.486ZM2201.93 187V162.887C2195.8 172.672 2188.97 179.622 2181.43 183.738C2173.9 187.854 2166.21 189.912 2158.37 189.912C2148.27 189.912 2139.58 186.689 2132.28 180.244C2125.05 173.72 2121.44 163.47 2121.44 149.491V59.0971H2155.92V140.988C2155.92 147.977 2156.54 152.714 2157.79 155.199C2159.11 157.684 2160.85 159.587 2163.03 160.907C2165.28 162.149 2167.77 162.771 2170.48 162.771C2175.22 162.771 2180.15 161.218 2185.28 158.111C2190.4 154.927 2195.96 148.753 2201.93 139.59V59.0971H2236.42V187H2201.93ZM2373.99 184.204C2359.7 188.01 2346.38 189.912 2334.03 189.912C2312.13 189.912 2295.67 183.467 2284.64 170.575C2273.61 157.606 2268.1 141.725 2268.1 122.932C2268.1 103.207 2273.92 87.1705 2285.57 74.8228C2297.22 62.3975 2314.35 56.1849 2336.94 56.1849C2347.35 56.1849 2359.35 57.8545 2372.94 61.1938V86.1221C2358.8 81.5403 2347.54 79.2493 2339.16 79.2493C2327.2 79.2493 2318.46 83.7923 2312.95 92.8784C2307.43 101.887 2304.68 111.827 2304.68 122.699C2304.68 131.086 2306.27 138.93 2309.45 146.229C2312.64 153.452 2317.06 158.732 2322.73 162.072C2328.48 165.411 2334.92 167.081 2342.07 167.081C2352.4 167.081 2363.04 164.829 2373.99 160.324V184.204ZM2500.96 184.204C2486.67 188.01 2473.35 189.912 2461 189.912C2439.1 189.912 2422.64 183.467 2411.61 170.575C2400.58 157.606 2395.07 141.725 2395.07 122.932C2395.07 103.207 2400.9 87.1705 2412.54 74.8228C2424.19 62.3975 2441.32 56.1849 2463.91 56.1849C2474.32 56.1849 2486.32 57.8545 2499.91 61.1938V86.1221C2485.78 81.5403 2474.51 79.2493 2466.13 79.2493C2454.17 79.2493 2445.43 83.7923 2439.92 92.8784C2434.4 101.887 2431.65 111.827 2431.65 122.699C2431.65 131.086 2433.24 138.93 2436.42 146.229C2439.61 153.452 2444.03 158.732 2449.7 162.072C2455.45 165.411 2461.9 167.081 2469.04 167.081C2479.37 167.081 2490.01 164.829 2500.96 160.324V184.204ZM2637.71 182.69C2621.33 187.505 2605.8 189.912 2591.12 189.912C2577.22 189.912 2565.03 187.349 2554.54 182.224C2544.14 177.021 2536.1 168.944 2530.43 157.995C2524.84 146.967 2522.04 135.008 2522.04 122.117C2522.04 110.157 2524.41 99.1298 2529.15 89.0343C2533.96 78.8611 2540.91 70.8623 2550 65.0379C2559.16 59.1359 2570.42 56.1849 2583.78 56.1849C2600.17 56.1849 2613.25 61.388 2623.04 71.7942C2632.82 82.2004 2637.71 101.576 2637.71 129.921H2558.39C2559.16 138.541 2561.1 145.336 2564.21 150.307C2567.39 155.277 2571.67 159.237 2577.02 162.188C2582.38 165.062 2589.57 166.498 2598.57 166.498C2610.14 166.498 2623.19 163.819 2637.71 158.461V182.69ZM2557.92 110.468H2603.82C2603.82 98.7415 2601.84 90.3545 2597.87 85.3067C2593.99 80.2589 2588.94 77.735 2582.73 77.735C2575.98 77.735 2570.42 80.5307 2566.07 86.1221C2561.73 91.6358 2559.01 99.7511 2557.92 110.468ZM2669.98 182.923V157.645C2687.07 164.79 2701.66 168.362 2713.78 168.362C2720.23 168.362 2725.35 167.003 2729.16 164.285C2733.04 161.567 2734.98 158.111 2734.98 153.918C2734.98 150.268 2733.54 147.2 2730.67 144.715C2727.8 142.308 2723.41 139.939 2717.51 137.609L2705.86 132.95C2693.82 128.135 2684.93 122.816 2679.18 116.991C2673.44 111.244 2670.56 103.75 2670.56 94.5092C2670.56 83.4041 2674.87 74.2404 2683.49 67.0182C2692.19 59.796 2705.43 56.1849 2723.22 56.1849C2733.62 56.1849 2746.01 57.6992 2760.37 60.7279V84.9572C2746.55 80.1424 2735.1 77.735 2726.01 77.735C2718.87 77.735 2713.51 78.9775 2709.94 81.4626C2706.36 83.87 2704.58 87.0152 2704.58 90.8981C2704.58 93.9267 2705.74 96.6059 2708.07 98.9357C2710.32 101.265 2714.44 103.556 2720.42 105.808L2730.44 109.653C2746.98 115.943 2757.81 122.039 2762.94 127.941C2767.99 133.921 2770.51 141.065 2770.51 149.375C2770.51 160.169 2765.85 169.643 2756.53 177.798C2747.29 185.874 2733.82 189.912 2716.11 189.912C2701.04 189.912 2685.67 187.582 2669.98 182.923ZM2804.87 182.923V157.645C2821.96 164.79 2836.56 168.362 2848.67 168.362C2855.12 168.362 2860.24 167.003 2864.05 164.285C2867.93 161.567 2869.87 158.111 2869.87 153.918C2869.87 150.268 2868.44 147.2 2865.56 144.715C2862.69 142.308 2858.3 139.939 2852.4 137.609L2840.75 132.95C2828.71 128.135 2819.82 122.816 2814.08 116.991C2808.33 111.244 2805.46 103.75 2805.46 94.5092C2805.46 83.4041 2809.77 74.2404 2818.39 67.0182C2827.08 59.796 2840.32 56.1849 2858.11 56.1849C2868.51 56.1849 2880.9 57.6992 2895.27 60.7279V84.9572C2881.44 80.1424 2869.99 77.735 2860.9 77.735C2853.76 77.735 2848.4 78.9775 2844.83 81.4626C2841.26 83.87 2839.47 87.0152 2839.47 90.8981C2839.47 93.9267 2840.63 96.6059 2842.96 98.9357C2845.22 101.265 2849.33 103.556 2855.31 105.808L2865.33 109.653C2881.87 115.943 2892.7 122.039 2897.83 127.941C2902.88 133.921 2905.4 141.065 2905.4 149.375C2905.4 160.169 2900.74 169.643 2891.42 177.798C2882.18 185.874 2868.71 189.912 2851 189.912C2835.94 189.912 2820.56 187.582 2804.87 182.923ZM2946.75 187V80.6472H2929.16V59.0971H2946.75V49.8946C2946.75 32.0332 2950.83 19.2973 2958.99 11.6868C2967.22 3.99862 2978.87 0.154547 2993.93 0.154547C3004.1 0.154547 3014.59 1.63005 3025.38 4.58106V27.8785C3015.6 23.7626 3006.82 21.7047 2999.06 21.7047C2995.41 21.7047 2992.26 22.4424 2989.62 23.9179C2987.06 25.3158 2985 27.7232 2983.45 31.1401C2981.97 34.4794 2981.23 40.3038 2981.23 48.6132V59.0971H3013.62V80.6472H2981.23V187H2946.75ZM3121.25 187V162.887C3115.12 172.672 3108.28 179.622 3100.75 183.738C3093.22 187.854 3085.53 189.912 3077.69 189.912C3067.59 189.912 3058.89 186.689 3051.59 180.244C3044.37 173.72 3040.76 163.47 3040.76 149.491V59.0971H3075.24V140.988C3075.24 147.977 3075.86 152.714 3077.1 155.199C3078.42 157.684 3080.17 159.587 3082.35 160.907C3084.6 162.149 3087.08 162.771 3089.8 162.771C3094.54 162.771 3099.47 161.218 3104.59 158.111C3109.72 154.927 3115.27 148.753 3121.25 139.59V59.0971H3155.73V187H3121.25ZM3198.95 187V3.06673H3233.43V187H3198.95ZM3276.53 187V3.06673H3311.01V187H3276.53ZM3354.58 233.012L3383.58 187L3336.17 59.0971H3373.21L3404.9 144.599L3442.52 59.0971H3468.73L3389.75 233.012H3354.58Z"/>
</mask>
<path d="M1976.88 185.486V155.898C1990.16 161.489 2000.06 164.829 2006.59 165.916C2013.19 167.003 2019.24 167.547 2024.76 167.547C2034.7 167.547 2042.11 165.295 2047.01 160.79C2051.9 156.286 2054.35 150.889 2054.35 144.599C2054.35 139.784 2053.03 135.435 2050.39 131.552C2047.74 127.747 2041.07 122.816 2030.35 116.758L2018.82 110.351C2002.35 101.11 1991.21 92.5677 1985.39 84.7242C1979.48 76.8808 1976.53 67.7948 1976.53 57.4662C1976.53 44.4973 1981.42 33.3922 1991.21 24.1509C2001.07 14.9096 2015.21 10.2889 2033.61 10.2889C2047.36 10.2889 2062.85 12.2692 2080.09 16.2298V43.8372C2062.54 37.2363 2048.6 33.9358 2038.27 33.9358C2029.73 33.9358 2023.2 35.8385 2018.7 39.6437C2014.27 43.3713 2012.06 47.8755 2012.06 53.1562C2012.06 57.1944 2013.38 60.9609 2016.02 64.4555C2018.58 67.9501 2025.22 72.7261 2035.94 78.7834L2048.29 85.6561C2067.16 96.2953 2079.2 105.537 2084.4 113.38C2089.52 121.301 2092.09 130.193 2092.09 140.056C2092.09 154.189 2086.73 166.265 2076.01 176.283C2065.37 186.301 2048.4 191.31 2025.11 191.31C2011.28 191.31 1995.21 189.369 1976.88 185.486ZM2201.93 187V162.887C2195.8 172.672 2188.97 179.622 2181.43 183.738C2173.9 187.854 2166.21 189.912 2158.37 189.912C2148.27 189.912 2139.58 186.689 2132.28 180.244C2125.05 173.72 2121.44 163.47 2121.44 149.491V59.0971H2155.92V140.988C2155.92 147.977 2156.54 152.714 2157.79 155.199C2159.11 157.684 2160.85 159.587 2163.03 160.907C2165.28 162.149 2167.77 162.771 2170.48 162.771C2175.22 162.771 2180.15 161.218 2185.28 158.111C2190.4 154.927 2195.96 148.753 2201.93 139.59V59.0971H2236.42V187H2201.93ZM2373.99 184.204C2359.7 188.01 2346.38 189.912 2334.03 189.912C2312.13 189.912 2295.67 183.467 2284.64 170.575C2273.61 157.606 2268.1 141.725 2268.1 122.932C2268.1 103.207 2273.92 87.1705 2285.57 74.8228C2297.22 62.3975 2314.35 56.1849 2336.94 56.1849C2347.35 56.1849 2359.35 57.8545 2372.94 61.1938V86.1221C2358.8 81.5403 2347.54 79.2493 2339.16 79.2493C2327.2 79.2493 2318.46 83.7923 2312.95 92.8784C2307.43 101.887 2304.68 111.827 2304.68 122.699C2304.68 131.086 2306.27 138.93 2309.45 146.229C2312.64 153.452 2317.06 158.732 2322.73 162.072C2328.48 165.411 2334.92 167.081 2342.07 167.081C2352.4 167.081 2363.04 164.829 2373.99 160.324V184.204ZM2500.96 184.204C2486.67 188.01 2473.35 189.912 2461 189.912C2439.1 189.912 2422.64 183.467 2411.61 170.575C2400.58 157.606 2395.07 141.725 2395.07 122.932C2395.07 103.207 2400.9 87.1705 2412.54 74.8228C2424.19 62.3975 2441.32 56.1849 2463.91 56.1849C2474.32 56.1849 2486.32 57.8545 2499.91 61.1938V86.1221C2485.78 81.5403 2474.51 79.2493 2466.13 79.2493C2454.17 79.2493 2445.43 83.7923 2439.92 92.8784C2434.4 101.887 2431.65 111.827 2431.65 122.699C2431.65 131.086 2433.24 138.93 2436.42 146.229C2439.61 153.452 2444.03 158.732 2449.7 162.072C2455.45 165.411 2461.9 167.081 2469.04 167.081C2479.37 167.081 2490.01 164.829 2500.96 160.324V184.204ZM2637.71 182.69C2621.33 187.505 2605.8 189.912 2591.12 189.912C2577.22 189.912 2565.03 187.349 2554.54 182.224C2544.14 177.021 2536.1 168.944 2530.43 157.995C2524.84 146.967 2522.04 135.008 2522.04 122.117C2522.04 110.157 2524.41 99.1298 2529.15 89.0343C2533.96 78.8611 2540.91 70.8623 2550 65.0379C2559.16 59.1359 2570.42 56.1849 2583.78 56.1849C2600.17 56.1849 2613.25 61.388 2623.04 71.7942C2632.82 82.2004 2637.71 101.576 2637.71 129.921H2558.39C2559.16 138.541 2561.1 145.336 2564.21 150.307C2567.39 155.277 2571.67 159.237 2577.02 162.188C2582.38 165.062 2589.57 166.498 2598.57 166.498C2610.14 166.498 2623.19 163.819 2637.71 158.461V182.69ZM2557.92 110.468H2603.82C2603.82 98.7415 2601.84 90.3545 2597.87 85.3067C2593.99 80.2589 2588.94 77.735 2582.73 77.735C2575.98 77.735 2570.42 80.5307 2566.07 86.1221C2561.73 91.6358 2559.01 99.7511 2557.92 110.468ZM2669.98 182.923V157.645C2687.07 164.79 2701.66 168.362 2713.78 168.362C2720.23 168.362 2725.35 167.003 2729.16 164.285C2733.04 161.567 2734.98 158.111 2734.98 153.918C2734.98 150.268 2733.54 147.2 2730.67 144.715C2727.8 142.308 2723.41 139.939 2717.51 137.609L2705.86 132.95C2693.82 128.135 2684.93 122.816 2679.18 116.991C2673.44 111.244 2670.56 103.75 2670.56 94.5092C2670.56 83.4041 2674.87 74.2404 2683.49 67.0182C2692.19 59.796 2705.43 56.1849 2723.22 56.1849C2733.62 56.1849 2746.01 57.6992 2760.37 60.7279V84.9572C2746.55 80.1424 2735.1 77.735 2726.01 77.735C2718.87 77.735 2713.51 78.9775 2709.94 81.4626C2706.36 83.87 2704.58 87.0152 2704.58 90.8981C2704.58 93.9267 2705.74 96.6059 2708.07 98.9357C2710.32 101.265 2714.44 103.556 2720.42 105.808L2730.44 109.653C2746.98 115.943 2757.81 122.039 2762.94 127.941C2767.99 133.921 2770.51 141.065 2770.51 149.375C2770.51 160.169 2765.85 169.643 2756.53 177.798C2747.29 185.874 2733.82 189.912 2716.11 189.912C2701.04 189.912 2685.67 187.582 2669.98 182.923ZM2804.87 182.923V157.645C2821.96 164.79 2836.56 168.362 2848.67 168.362C2855.12 168.362 2860.24 167.003 2864.05 164.285C2867.93 161.567 2869.87 158.111 2869.87 153.918C2869.87 150.268 2868.44 147.2 2865.56 144.715C2862.69 142.308 2858.3 139.939 2852.4 137.609L2840.75 132.95C2828.71 128.135 2819.82 122.816 2814.08 116.991C2808.33 111.244 2805.46 103.75 2805.46 94.5092C2805.46 83.4041 2809.77 74.2404 2818.39 67.0182C2827.08 59.796 2840.32 56.1849 2858.11 56.1849C2868.51 56.1849 2880.9 57.6992 2895.27 60.7279V84.9572C2881.44 80.1424 2869.99 77.735 2860.9 77.735C2853.76 77.735 2848.4 78.9775 2844.83 81.4626C2841.26 83.87 2839.47 87.0152 2839.47 90.8981C2839.47 93.9267 2840.63 96.6059 2842.96 98.9357C2845.22 101.265 2849.33 103.556 2855.31 105.808L2865.33 109.653C2881.87 115.943 2892.7 122.039 2897.83 127.941C2902.88 133.921 2905.4 141.065 2905.4 149.375C2905.4 160.169 2900.74 169.643 2891.42 177.798C2882.18 185.874 2868.71 189.912 2851 189.912C2835.94 189.912 2820.56 187.582 2804.87 182.923ZM2946.75 187V80.6472H2929.16V59.0971H2946.75V49.8946C2946.75 32.0332 2950.83 19.2973 2958.99 11.6868C2967.22 3.99862 2978.87 0.154547 2993.93 0.154547C3004.1 0.154547 3014.59 1.63005 3025.38 4.58106V27.8785C3015.6 23.7626 3006.82 21.7047 2999.06 21.7047C2995.41 21.7047 2992.26 22.4424 2989.62 23.9179C2987.06 25.3158 2985 27.7232 2983.45 31.1401C2981.97 34.4794 2981.23 40.3038 2981.23 48.6132V59.0971H3013.62V80.6472H2981.23V187H2946.75ZM3121.25 187V162.887C3115.12 172.672 3108.28 179.622 3100.75 183.738C3093.22 187.854 3085.53 189.912 3077.69 189.912C3067.59 189.912 3058.89 186.689 3051.59 180.244C3044.37 173.72 3040.76 163.47 3040.76 149.491V59.0971H3075.24V140.988C3075.24 147.977 3075.86 152.714 3077.1 155.199C3078.42 157.684 3080.17 159.587 3082.35 160.907C3084.6 162.149 3087.08 162.771 3089.8 162.771C3094.54 162.771 3099.47 161.218 3104.59 158.111C3109.72 154.927 3115.27 148.753 3121.25 139.59V59.0971H3155.73V187H3121.25ZM3198.95 187V3.06673H3233.43V187H3198.95ZM3276.53 187V3.06673H3311.01V187H3276.53ZM3354.58 233.012L3383.58 187L3336.17 59.0971H3373.21L3404.9 144.599L3442.52 59.0971H3468.73L3389.75 233.012H3354.58Z" fill="#DCA413"/>
<path d="M1976.88 185.486H1971.88V189.537L1975.85 190.377L1976.88 185.486ZM1976.88 155.898L1978.82 151.29L1971.88 148.368V155.898H1976.88ZM2006.59 165.916L2005.76 170.848L2005.77 170.849L2006.59 165.916ZM2050.39 131.552L2054.52 128.741L2054.51 128.721L2054.49 128.702L2050.39 131.552ZM2030.35 116.758L2032.81 112.405L2032.79 112.396L2032.78 112.387L2030.35 116.758ZM2018.82 110.351L2016.37 114.712L2016.38 114.717L2016.39 114.722L2018.82 110.351ZM1985.39 84.7242L1989.4 81.7434L1989.39 81.7306L1989.38 81.7179L1985.39 84.7242ZM1991.21 24.1509L1987.79 20.5023L1987.78 20.5091L1987.78 20.5158L1991.21 24.1509ZM2080.09 16.2298H2085.09V12.2482L2081.21 11.3567L2080.09 16.2298ZM2080.09 43.8372L2078.33 48.5172L2085.09 51.0597V43.8372H2080.09ZM2018.7 39.6437L2021.92 43.4683L2021.93 43.4631L2018.7 39.6437ZM2016.02 64.4555L2020.05 61.4987L2020.03 61.4698L2020.01 61.4413L2016.02 64.4555ZM2035.94 78.7834L2033.48 83.1362L2033.49 83.1443L2033.51 83.1522L2035.94 78.7834ZM2048.29 85.6561L2050.74 81.3007L2050.73 81.294L2050.72 81.2873L2048.29 85.6561ZM2084.4 113.38L2088.6 110.664L2088.58 110.64L2088.57 110.616L2084.4 113.38ZM2076.01 176.283L2072.6 172.631L2072.59 172.637L2072.58 172.643L2076.01 176.283ZM1981.88 185.486V155.898H1971.88V185.486H1981.88ZM1974.94 160.506C1988.26 166.115 1998.62 169.658 2005.76 170.848L2007.41 160.984C2001.5 160 1992.06 156.864 1978.82 151.29L1974.94 160.506ZM2005.77 170.849C2012.59 171.972 2018.92 172.547 2024.76 172.547V162.547C2019.57 162.547 2013.79 162.034 2007.4 160.982L2005.77 170.849ZM2024.76 172.547C2035.35 172.547 2044.21 170.16 2050.39 164.469L2043.62 157.112C2040.02 160.429 2034.05 162.547 2024.76 162.547V172.547ZM2050.39 164.469C2056.25 159.079 2059.35 152.374 2059.35 144.599H2049.35C2049.35 149.404 2047.55 153.493 2043.62 157.112L2050.39 164.469ZM2059.35 144.599C2059.35 138.808 2057.74 133.475 2054.52 128.741L2046.25 134.364C2048.31 137.395 2049.35 140.76 2049.35 144.599H2059.35ZM2054.49 128.702C2052.71 126.125 2049.85 123.554 2046.37 120.977C2042.81 118.349 2038.27 115.491 2032.81 112.405L2027.89 121.111C2033.15 124.083 2037.31 126.719 2040.43 129.022C2043.62 131.377 2045.42 133.174 2046.28 134.403L2054.49 128.702ZM2032.78 112.387L2021.25 105.981L2016.39 114.722L2027.92 121.129L2032.78 112.387ZM2021.26 105.991C2004.95 96.8326 1994.57 88.7102 1989.4 81.7434L1981.37 87.7051C1987.85 96.4252 1999.76 105.388 2016.37 114.712L2021.26 105.991ZM1989.38 81.7179C1984.17 74.7882 1981.53 66.7707 1981.53 57.4662H1971.53C1971.53 68.8188 1974.8 78.9733 1981.39 87.7306L1989.38 81.7179ZM1981.53 57.4662C1981.53 45.9305 1985.82 36.123 1994.64 27.786L1987.78 20.5158C1977.03 30.6615 1971.53 43.0642 1971.53 57.4662H1981.53ZM1994.63 27.7995C2003.27 19.7 2016.01 15.2889 2033.61 15.2889V5.28893C2014.4 5.28893 1998.87 10.1192 1987.79 20.5023L1994.63 27.7995ZM2033.61 15.2889C2046.89 15.2889 2062 17.2039 2078.97 21.1028L2081.21 11.3567C2063.7 7.3345 2047.82 5.28893 2033.61 5.28893V15.2889ZM2075.09 16.2298V43.8372H2085.09V16.2298H2075.09ZM2081.85 39.1573C2064.12 32.4883 2049.5 28.9358 2038.27 28.9358V38.9358C2047.69 38.9358 2060.96 41.9843 2078.33 48.5172L2081.85 39.1573ZM2038.27 28.9358C2029.07 28.9358 2021.21 30.9783 2015.47 35.8243L2021.93 43.4631C2025.2 40.6986 2030.39 38.9358 2038.27 38.9358V28.9358ZM2015.48 35.8191C2010.05 40.3937 2007.06 46.2477 2007.06 53.1562H2017.06C2017.06 49.5032 2018.5 46.3489 2021.92 43.4683L2015.48 35.8191ZM2007.06 53.1562C2007.06 58.3761 2008.79 63.1849 2012.03 67.4696L2020.01 61.4413C2017.97 58.7368 2017.06 56.0128 2017.06 53.1562H2007.06ZM2011.99 67.4123C2013.75 69.8074 2016.56 72.244 2020 74.7174C2023.52 77.2502 2028.03 80.0579 2033.48 83.1362L2038.4 74.4306C2033.13 71.4516 2028.96 68.8426 2025.84 66.5994C2022.64 64.2968 2020.86 62.5982 2020.05 61.4987L2011.99 67.4123ZM2033.51 83.1522L2045.86 90.025L2050.72 81.2873L2038.37 74.4146L2033.51 83.1522ZM2045.83 90.0116C2064.69 100.643 2075.75 109.392 2080.23 116.144L2088.57 110.616C2082.64 101.682 2069.63 91.9476 2050.74 81.3007L2045.83 90.0116ZM2080.2 116.096C2084.78 123.171 2087.09 131.111 2087.09 140.056H2097.09C2097.09 129.275 2094.27 119.432 2088.6 110.664L2080.2 116.096ZM2087.09 140.056C2087.09 152.747 2082.35 163.518 2072.6 172.631L2079.43 179.936C2091.11 169.013 2097.09 155.632 2097.09 140.056H2087.09ZM2072.58 172.643C2063.29 181.393 2047.85 186.31 2025.11 186.31V196.31C2048.96 196.31 2067.45 191.209 2079.44 179.923L2072.58 172.643ZM2025.11 186.31C2011.73 186.31 1996.02 184.429 1977.92 180.594L1975.85 190.377C1994.4 194.309 2010.84 196.31 2025.11 196.31V186.31ZM2201.93 187H2196.93V192H2201.93V187ZM2201.93 162.887H2206.93V145.5L2197.7 160.231L2201.93 162.887ZM2132.28 180.244L2128.92 183.954L2128.95 183.973L2128.97 183.992L2132.28 180.244ZM2121.44 59.0971V54.0971H2116.44V59.0971H2121.44ZM2155.92 59.0971H2160.92V54.0971H2155.92V59.0971ZM2157.79 155.199L2153.31 157.435L2153.34 157.49L2153.37 157.545L2157.79 155.199ZM2163.03 160.907L2160.43 165.181L2160.52 165.235L2160.61 165.285L2163.03 160.907ZM2185.28 158.111L2187.87 162.387L2187.89 162.373L2187.92 162.358L2185.28 158.111ZM2201.93 139.59L2206.12 142.322L2206.93 141.077V139.59H2201.93ZM2201.93 59.0971V54.0971H2196.93V59.0971H2201.93ZM2236.42 59.0971H2241.42V54.0971H2236.42V59.0971ZM2236.42 187V192H2241.42V187H2236.42ZM2206.93 187V162.887H2196.93V187H2206.93ZM2197.7 160.231C2191.87 169.532 2185.6 175.763 2179.04 179.351L2183.83 188.126C2192.33 183.482 2199.73 175.812 2206.17 165.543L2197.7 160.231ZM2179.04 179.351C2172.17 183.104 2165.3 184.912 2158.37 184.912V194.912C2167.13 194.912 2175.63 192.605 2183.83 188.126L2179.04 179.351ZM2158.37 184.912C2149.44 184.912 2141.94 182.103 2135.59 176.496L2128.97 183.992C2137.22 191.276 2147.1 194.912 2158.37 194.912V184.912ZM2135.63 176.533C2129.85 171.311 2126.44 162.686 2126.44 149.491H2116.44C2116.44 164.254 2120.26 176.13 2128.92 183.954L2135.63 176.533ZM2126.44 149.491V59.0971H2116.44V149.491H2126.44ZM2121.44 64.0971H2155.92V54.0971H2121.44V64.0971ZM2150.92 59.0971V140.988H2160.92V59.0971H2150.92ZM2150.92 140.988C2150.92 144.61 2151.08 147.775 2151.43 150.433C2151.77 153.016 2152.33 155.461 2153.31 157.435L2162.26 152.963C2162 152.452 2161.63 151.286 2161.35 149.132C2161.07 147.053 2160.92 144.354 2160.92 140.988H2150.92ZM2153.37 157.545C2155.07 160.738 2157.41 163.345 2160.43 165.181L2165.62 156.633C2164.3 155.828 2163.15 154.63 2162.2 152.853L2153.37 157.545ZM2160.61 165.285C2163.65 166.959 2166.97 167.771 2170.48 167.771V157.771C2168.56 157.771 2166.91 157.34 2165.44 156.529L2160.61 165.285ZM2170.48 167.771C2176.35 167.771 2182.17 165.843 2187.87 162.387L2182.69 153.835C2178.14 156.592 2174.09 157.771 2170.48 157.771V167.771ZM2187.92 162.358C2193.98 158.591 2200.02 151.679 2206.12 142.322L2197.75 136.857C2191.89 145.828 2186.83 151.263 2182.64 153.864L2187.92 162.358ZM2206.93 139.59V59.0971H2196.93V139.59H2206.93ZM2201.93 64.0971H2236.42V54.0971H2201.93V64.0971ZM2231.42 59.0971V187H2241.42V59.0971H2231.42ZM2236.42 182H2201.93V192H2236.42V182ZM2373.99 184.204L2375.27 189.036L2378.99 188.047V184.204H2373.99ZM2284.64 170.575L2280.83 173.814L2280.84 173.82L2280.84 173.825L2284.64 170.575ZM2285.57 74.8228L2289.21 78.2539L2289.22 78.2482L2289.22 78.2425L2285.57 74.8228ZM2372.94 61.1938H2377.94V57.2737L2374.13 56.3383L2372.94 61.1938ZM2372.94 86.1221L2371.4 90.8784L2377.94 92.9991V86.1221H2372.94ZM2312.95 92.8784L2317.21 95.4886L2317.22 95.4804L2317.22 95.4723L2312.95 92.8784ZM2309.45 146.229L2304.87 148.228L2304.87 148.237L2304.88 148.246L2309.45 146.229ZM2322.73 162.072L2320.19 166.38L2320.21 166.387L2320.22 166.395L2322.73 162.072ZM2373.99 160.324H2378.99V152.861L2372.08 155.7L2373.99 160.324ZM2372.7 179.373C2358.75 183.087 2345.87 184.912 2334.03 184.912V194.912C2346.89 194.912 2360.64 192.932 2375.27 189.036L2372.7 179.373ZM2334.03 184.912C2313.14 184.912 2298.26 178.801 2288.44 167.325L2280.84 173.825C2293.08 188.132 2311.13 194.912 2334.03 194.912V184.912ZM2288.45 167.336C2278.27 155.367 2273.1 140.671 2273.1 122.932H2263.1C2263.1 142.78 2268.95 159.845 2280.83 173.814L2288.45 167.336ZM2273.1 122.932C2273.1 104.261 2278.58 89.5242 2289.21 78.2539L2281.94 71.3917C2269.27 84.8168 2263.1 102.153 2263.1 122.932H2273.1ZM2289.22 78.2425C2299.64 67.1249 2315.25 61.1849 2336.94 61.1849V51.1849C2313.44 51.1849 2294.8 57.6702 2281.93 71.4031L2289.22 78.2425ZM2336.94 61.1849C2346.84 61.1849 2358.42 62.7754 2371.75 66.0494L2374.13 56.3383C2360.28 52.9336 2347.86 51.1849 2336.94 51.1849V61.1849ZM2367.94 61.1938V86.1221H2377.94V61.1938H2367.94ZM2374.48 81.3658C2360.17 76.7267 2348.32 74.2494 2339.16 74.2494V84.2493C2346.77 84.2493 2357.44 86.3538 2371.4 90.8784L2374.48 81.3658ZM2339.16 74.2494C2325.71 74.2494 2315.22 79.4941 2308.67 90.2844L2317.22 95.4723C2321.7 88.0906 2328.68 84.2493 2339.16 84.2493V74.2494ZM2308.68 90.2681C2302.67 100.086 2299.68 110.934 2299.68 122.699H2309.68C2309.68 112.72 2312.19 103.687 2317.21 95.4886L2308.68 90.2681ZM2299.68 122.699C2299.68 131.737 2301.4 140.265 2304.87 148.228L2314.04 144.23C2311.14 137.594 2309.68 130.435 2309.68 122.699H2299.68ZM2304.88 148.246C2308.4 156.231 2313.45 162.41 2320.19 166.38L2325.27 157.764C2320.67 155.055 2316.88 150.672 2314.03 144.212L2304.88 148.246ZM2320.22 166.395C2326.79 170.211 2334.11 172.081 2342.07 172.081V162.081C2335.74 162.081 2330.17 160.611 2325.24 157.749L2320.22 166.395ZM2342.07 172.081C2353.14 172.081 2364.42 169.665 2375.89 164.949L2372.08 155.7C2361.65 159.992 2351.66 162.081 2342.07 162.081V172.081ZM2368.99 160.324V184.204H2378.99V160.324H2368.99ZM2500.96 184.204L2502.24 189.036L2505.96 188.047V184.204H2500.96ZM2411.61 170.575L2407.8 173.814L2407.81 173.82L2407.81 173.825L2411.61 170.575ZM2412.54 74.8228L2416.18 78.2539L2416.19 78.2482L2416.19 78.2425L2412.54 74.8228ZM2499.91 61.1938H2504.91V57.2737L2501.1 56.3383L2499.91 61.1938ZM2499.91 86.1221L2498.37 90.8784L2504.91 92.9991V86.1221H2499.91ZM2439.92 92.8784L2444.18 95.4886L2444.19 95.4804L2444.19 95.4723L2439.92 92.8784ZM2436.42 146.229L2431.84 148.228L2431.84 148.237L2431.85 148.246L2436.42 146.229ZM2449.7 162.072L2447.17 166.38L2447.18 166.387L2447.19 166.395L2449.7 162.072ZM2500.96 160.324H2505.96V152.861L2499.06 155.7L2500.96 160.324ZM2499.67 179.373C2485.72 183.087 2472.84 184.912 2461 184.912V194.912C2473.86 194.912 2487.62 192.932 2502.24 189.036L2499.67 179.373ZM2461 184.912C2440.11 184.912 2425.23 178.801 2415.41 167.325L2407.81 173.825C2420.05 188.132 2438.1 194.912 2461 194.912V184.912ZM2415.42 167.336C2405.24 155.367 2400.07 140.671 2400.07 122.932H2390.07C2390.07 142.78 2395.93 159.845 2407.8 173.814L2415.42 167.336ZM2400.07 122.932C2400.07 104.261 2405.55 89.5242 2416.18 78.2539L2408.91 71.3917C2396.24 84.8168 2390.07 102.153 2390.07 122.932H2400.07ZM2416.19 78.2425C2426.61 67.1249 2442.23 61.1849 2463.91 61.1849V51.1849C2440.41 51.1849 2421.77 57.6702 2408.9 71.4031L2416.19 78.2425ZM2463.91 61.1849C2473.81 61.1849 2485.39 62.7754 2498.72 66.0494L2501.1 56.3383C2487.25 52.9336 2474.83 51.1849 2463.91 51.1849V61.1849ZM2494.91 61.1938V86.1221H2504.91V61.1938H2494.91ZM2501.45 81.3658C2487.14 76.7267 2475.29 74.2494 2466.13 74.2494V84.2493C2473.74 84.2493 2484.41 86.3538 2498.37 90.8784L2501.45 81.3658ZM2466.13 74.2494C2452.68 74.2494 2442.19 79.4941 2435.64 90.2844L2444.19 95.4723C2448.67 88.0906 2455.65 84.2493 2466.13 84.2493V74.2494ZM2435.65 90.2681C2429.64 100.086 2426.65 110.934 2426.65 122.699H2436.65C2436.65 112.72 2439.16 103.687 2444.18 95.4886L2435.65 90.2681ZM2426.65 122.699C2426.65 131.737 2428.37 140.265 2431.84 148.228L2441.01 144.23C2438.11 137.594 2436.65 130.435 2436.65 122.699H2426.65ZM2431.85 148.246C2435.37 156.231 2440.43 162.41 2447.17 166.38L2452.24 157.764C2447.64 155.055 2443.85 150.672 2441 144.212L2431.85 148.246ZM2447.19 166.395C2453.76 170.211 2461.08 172.081 2469.04 172.081V162.081C2462.71 162.081 2457.14 160.611 2452.22 157.749L2447.19 166.395ZM2469.04 172.081C2480.11 172.081 2491.39 169.665 2502.86 164.949L2499.06 155.7C2488.62 159.992 2478.63 162.081 2469.04 162.081V172.081ZM2495.96 160.324V184.204H2505.96V160.324H2495.96ZM2637.71 182.69L2639.12 187.487L2642.71 186.432V182.69H2637.71ZM2554.54 182.224L2552.31 186.696L2552.33 186.706L2552.35 186.716L2554.54 182.224ZM2530.43 157.995L2525.97 160.256L2525.98 160.275L2525.99 160.294L2530.43 157.995ZM2529.15 89.0343L2524.63 86.8953L2524.62 86.9028L2524.62 86.9103L2529.15 89.0343ZM2550 65.0379L2552.7 69.2473L2552.71 69.2415L2550 65.0379ZM2637.71 129.921V134.921H2642.71V129.921H2637.71ZM2558.39 129.921V124.921H2552.92L2553.41 130.37L2558.39 129.921ZM2564.21 150.307L2559.97 152.957L2559.98 152.98L2560 153.004L2564.21 150.307ZM2577.02 162.188L2574.61 166.568L2574.64 166.581L2574.66 166.595L2577.02 162.188ZM2637.71 158.461H2642.71V151.286L2635.98 153.77L2637.71 158.461ZM2557.92 110.468L2552.95 109.963L2552.39 115.468H2557.92V110.468ZM2603.82 110.468V115.468H2608.82V110.468H2603.82ZM2597.87 85.3067L2593.91 88.3552L2593.93 88.3743L2593.94 88.3931L2597.87 85.3067ZM2566.07 86.1221L2570 89.2185L2570.01 89.2052L2570.02 89.1918L2566.07 86.1221ZM2636.3 177.893C2620.3 182.595 2605.25 184.912 2591.12 184.912V194.912C2606.34 194.912 2622.35 192.415 2639.12 187.487L2636.3 177.893ZM2591.12 184.912C2577.83 184.912 2566.42 182.465 2556.74 177.732L2552.35 186.716C2563.63 192.234 2576.6 194.912 2591.12 194.912V184.912ZM2556.78 177.752C2547.38 173.051 2540.08 165.766 2534.87 155.696L2525.99 160.294C2532.11 172.123 2540.89 180.991 2552.31 186.696L2556.78 177.752ZM2534.89 155.734C2529.67 145.437 2527.04 134.257 2527.04 122.117H2517.04C2517.04 135.759 2520.01 148.497 2525.97 160.256L2534.89 155.734ZM2527.04 122.117C2527.04 110.837 2529.27 100.542 2533.67 91.1582L2524.62 86.9103C2519.55 97.7178 2517.04 109.477 2517.04 122.117H2527.04ZM2533.67 91.1732C2538.1 81.8091 2544.43 74.5436 2552.7 69.2473L2547.3 60.8285C2537.39 67.181 2529.83 75.913 2524.63 86.8953L2533.67 91.1732ZM2552.71 69.2415C2560.9 63.9658 2571.17 61.1849 2583.78 61.1849V51.1849C2569.68 51.1849 2557.43 54.306 2547.29 60.8343L2552.71 69.2415ZM2583.78 61.1849C2599.01 61.1849 2610.7 65.9694 2619.39 75.2193L2626.68 68.369C2615.81 56.8065 2601.32 51.1849 2583.78 51.1849V61.1849ZM2619.39 75.2193C2627.77 84.1322 2632.71 101.767 2632.71 129.921H2642.71C2642.71 101.385 2637.87 80.2685 2626.68 68.369L2619.39 75.2193ZM2637.71 124.921H2558.39V134.921H2637.71V124.921ZM2553.41 130.37C2554.22 139.428 2556.3 147.08 2559.97 152.957L2568.45 147.657C2565.91 143.593 2564.1 137.655 2563.37 129.473L2553.41 130.37ZM2560 153.004C2563.65 158.702 2568.55 163.23 2574.61 166.568L2579.44 157.808C2574.78 155.244 2571.14 151.851 2568.42 147.609L2560 153.004ZM2574.66 166.595C2581.01 170.001 2589.11 171.498 2598.57 171.498V161.498C2590.02 161.498 2583.75 160.123 2579.39 157.782L2574.66 166.595ZM2598.57 171.498C2610.9 171.498 2624.54 168.65 2639.44 163.151L2635.98 153.77C2621.84 158.989 2609.39 161.498 2598.57 161.498V171.498ZM2632.71 158.461V182.69H2642.71V158.461H2632.71ZM2557.92 115.468H2603.82V105.468H2557.92V115.468ZM2608.82 110.468C2608.82 98.4356 2606.83 88.6253 2601.81 82.2202L2593.94 88.3931C2596.84 92.0836 2598.82 99.0475 2598.82 110.468H2608.82ZM2601.84 82.2581C2597.04 76.0161 2590.54 72.735 2582.73 72.735V82.735C2587.35 82.735 2590.95 84.5018 2593.91 88.3552L2601.84 82.2581ZM2582.73 72.735C2574.35 72.735 2567.37 76.3116 2562.13 83.0524L2570.02 89.1918C2573.48 84.7498 2577.6 82.735 2582.73 82.735V72.735ZM2562.15 83.0257C2556.97 89.5848 2554.08 98.768 2552.95 109.963L2562.89 110.973C2563.93 100.734 2566.48 93.6869 2570 89.2185L2562.15 83.0257ZM2669.98 182.923H2664.98V186.654L2668.56 187.716L2669.98 182.923ZM2669.98 157.645L2671.91 153.032L2664.98 150.135V157.645H2669.98ZM2729.16 164.285L2726.29 160.189L2726.27 160.202L2726.25 160.216L2729.16 164.285ZM2730.67 144.715L2733.94 140.933L2733.91 140.908L2733.88 140.883L2730.67 144.715ZM2717.51 137.609L2715.65 142.252L2715.66 142.256L2715.67 142.26L2717.51 137.609ZM2679.18 116.991L2682.74 113.479L2682.73 113.468L2682.72 113.456L2679.18 116.991ZM2683.49 67.0182L2680.3 63.1715L2680.29 63.1785L2680.28 63.1856L2683.49 67.0182ZM2760.37 60.7279H2765.37V56.672L2761.41 55.8354L2760.37 60.7279ZM2760.37 84.9572L2758.73 89.679L2765.37 91.9934V84.9572H2760.37ZM2709.94 81.4626L2712.73 85.6089L2712.76 85.5883L2712.79 85.5671L2709.94 81.4626ZM2708.07 98.9357L2711.67 95.4606L2711.64 95.4301L2711.61 95.4001L2708.07 98.9357ZM2720.42 105.808L2722.21 101.14L2722.2 101.135L2722.18 101.129L2720.42 105.808ZM2730.44 109.653L2728.65 114.321L2728.65 114.323L2728.66 114.326L2730.44 109.653ZM2762.94 127.941L2766.76 124.716L2766.74 124.689L2766.71 124.663L2762.94 127.941ZM2756.53 177.798L2759.82 181.562L2759.82 181.56L2756.53 177.798ZM2674.98 182.923V157.645H2664.98V182.923H2674.98ZM2668.05 162.258C2685.46 169.537 2700.75 173.362 2713.78 173.362V163.362C2702.58 163.362 2688.67 160.043 2671.91 153.032L2668.05 162.258ZM2713.78 173.362C2720.88 173.362 2727.14 171.868 2732.06 168.354L2726.25 160.216C2723.56 162.138 2719.57 163.362 2713.78 163.362V173.362ZM2732.02 168.381C2737.04 164.869 2739.98 159.975 2739.98 153.918H2729.98C2729.98 156.248 2729.04 158.265 2726.29 160.189L2732.02 168.381ZM2739.98 153.918C2739.98 148.749 2737.86 144.324 2733.94 140.933L2727.4 148.497C2729.23 150.077 2729.98 151.786 2729.98 153.918H2739.98ZM2733.88 140.883C2730.41 137.973 2725.45 135.369 2719.34 132.959L2715.67 142.26C2721.37 144.509 2725.19 146.643 2727.46 148.548L2733.88 140.883ZM2719.36 132.967L2707.72 128.308L2704 137.592L2715.65 142.252L2719.36 132.967ZM2707.72 128.308C2695.99 123.616 2687.81 118.611 2682.74 113.479L2675.62 120.503C2682.05 127.02 2691.66 132.655 2704 137.592L2707.72 128.308ZM2682.72 113.456C2678.04 108.778 2675.56 102.622 2675.56 94.5092H2665.56C2665.56 104.879 2668.83 113.711 2675.65 120.527L2682.72 113.456ZM2675.56 94.5092C2675.56 84.9048 2679.2 77.1369 2686.7 70.8508L2680.28 63.1856C2670.54 71.3439 2665.56 81.9033 2665.56 94.5092H2675.56ZM2686.69 70.8649C2694.1 64.7106 2705.97 61.1849 2723.22 61.1849V51.1849C2704.9 51.1849 2690.28 54.8814 2680.3 63.1715L2686.69 70.8649ZM2723.22 61.1849C2733.17 61.1849 2745.19 62.6365 2759.34 65.6204L2761.41 55.8354C2746.83 52.7619 2734.08 51.1849 2723.22 51.1849V61.1849ZM2755.37 60.7279V84.9572H2765.37V60.7279H2755.37ZM2762.02 80.2355C2747.95 75.3347 2735.89 72.735 2726.01 72.735V82.735C2734.3 82.735 2745.15 84.9501 2758.73 89.679L2762.02 80.2355ZM2726.01 72.735C2718.44 72.735 2711.87 74.0237 2707.08 77.3581L2712.79 85.5671C2715.14 83.9314 2719.29 82.735 2726.01 82.735V72.735ZM2707.14 77.3163C2702.37 80.5336 2699.58 85.1494 2699.58 90.8981H2709.58C2709.58 88.881 2710.36 87.2064 2712.73 85.6089L2707.14 77.3163ZM2699.58 90.8981C2699.58 95.3759 2701.36 99.2946 2704.54 102.471L2711.61 95.4001C2710.12 93.9173 2709.58 92.4775 2709.58 90.8981H2699.58ZM2704.48 102.411C2707.53 105.574 2712.53 108.18 2718.66 110.488L2722.18 101.129C2716.35 98.9326 2713.11 96.957 2711.67 95.4606L2704.48 102.411ZM2718.63 110.477L2728.65 114.321L2732.23 104.984L2722.21 101.14L2718.63 110.477ZM2728.66 114.326C2745.17 120.605 2754.93 126.346 2759.16 131.219L2766.71 124.663C2760.69 117.732 2748.78 111.28 2732.21 104.979L2728.66 114.326ZM2759.12 131.166C2763.35 136.185 2765.51 142.167 2765.51 149.375H2775.51C2775.51 139.964 2772.62 131.656 2766.76 124.716L2759.12 131.166ZM2765.51 149.375C2765.51 158.508 2761.65 166.675 2753.24 174.035L2759.82 181.56C2770.05 172.612 2775.51 161.831 2775.51 149.375H2765.51ZM2753.24 174.033C2745.24 181.024 2733.13 184.912 2716.11 184.912V194.912C2734.5 194.912 2749.34 190.724 2759.82 181.562L2753.24 174.033ZM2716.11 184.912C2701.57 184.912 2686.67 182.664 2671.4 178.13L2668.56 187.716C2684.67 192.501 2700.52 194.912 2716.11 194.912V184.912ZM2804.87 182.923H2799.87V186.654L2803.45 187.716L2804.87 182.923ZM2804.87 157.645L2806.8 153.032L2799.87 150.135V157.645H2804.87ZM2864.05 164.285L2861.18 160.189L2861.16 160.202L2861.14 160.216L2864.05 164.285ZM2865.56 144.715L2868.83 140.933L2868.8 140.908L2868.77 140.883L2865.56 144.715ZM2852.4 137.609L2850.54 142.252L2850.55 142.256L2850.56 142.26L2852.4 137.609ZM2814.08 116.991L2817.63 113.479L2817.62 113.468L2817.61 113.456L2814.08 116.991ZM2818.39 67.0182L2815.19 63.1715L2815.18 63.1785L2815.17 63.1856L2818.39 67.0182ZM2895.27 60.7279H2900.27V56.672L2896.3 55.8354L2895.27 60.7279ZM2895.27 84.9572L2893.62 89.679L2900.27 91.9934V84.9572H2895.27ZM2844.83 81.4626L2847.62 85.6089L2847.65 85.5883L2847.68 85.5671L2844.83 81.4626ZM2842.96 98.9357L2846.56 95.4606L2846.53 95.4301L2846.5 95.4001L2842.96 98.9357ZM2855.31 105.808L2857.1 101.14L2857.09 101.135L2857.07 101.129L2855.31 105.808ZM2865.33 109.653L2863.54 114.321L2863.55 114.323L2863.55 114.326L2865.33 109.653ZM2897.83 127.941L2901.65 124.716L2901.63 124.689L2901.6 124.663L2897.83 127.941ZM2891.42 177.798L2894.71 181.562L2894.72 181.56L2891.42 177.798ZM2809.87 182.923V157.645H2799.87V182.923H2809.87ZM2802.94 162.258C2820.35 169.537 2835.64 173.362 2848.67 173.362V163.362C2837.47 163.362 2823.57 160.043 2806.8 153.032L2802.94 162.258ZM2848.67 173.362C2855.77 173.362 2862.03 171.868 2866.95 168.354L2861.14 160.216C2858.45 162.138 2854.46 163.362 2848.67 163.362V173.362ZM2866.92 168.381C2871.93 164.869 2874.87 159.975 2874.87 153.918H2864.87C2864.87 156.248 2863.93 158.265 2861.18 160.189L2866.92 168.381ZM2874.87 153.918C2874.87 148.749 2872.75 144.324 2868.83 140.933L2862.29 148.497C2864.12 150.077 2864.87 151.786 2864.87 153.918H2874.87ZM2868.77 140.883C2865.3 137.973 2860.34 135.369 2854.24 132.959L2850.56 142.26C2856.26 144.509 2860.08 146.643 2862.35 148.548L2868.77 140.883ZM2854.26 132.967L2842.61 128.308L2838.89 137.592L2850.54 142.252L2854.26 132.967ZM2842.61 128.308C2830.88 123.616 2822.7 118.611 2817.63 113.479L2810.52 120.503C2816.95 127.02 2826.55 132.655 2838.89 137.592L2842.61 128.308ZM2817.61 113.456C2812.93 108.778 2810.46 102.622 2810.46 94.5092H2800.46C2800.46 104.879 2803.72 113.711 2810.54 120.527L2817.61 113.456ZM2810.46 94.5092C2810.46 84.9048 2814.09 77.1369 2821.6 70.8508L2815.17 63.1856C2805.44 71.3439 2800.46 81.9033 2800.46 94.5092H2810.46ZM2821.58 70.8649C2828.99 64.7106 2840.86 61.1849 2858.11 61.1849V51.1849C2839.79 51.1849 2825.17 54.8814 2815.19 63.1715L2821.58 70.8649ZM2858.11 61.1849C2868.06 61.1849 2880.08 62.6365 2894.24 65.6204L2896.3 55.8354C2881.72 52.7619 2868.97 51.1849 2858.11 51.1849V61.1849ZM2890.27 60.7279V84.9572H2900.27V60.7279H2890.27ZM2896.91 80.2355C2882.84 75.3347 2870.79 72.735 2860.9 72.735V82.735C2869.19 82.735 2880.05 84.9501 2893.62 89.679L2896.91 80.2355ZM2860.9 72.735C2853.33 72.735 2846.77 74.0237 2841.97 77.3581L2847.68 85.5671C2850.03 83.9314 2854.18 82.735 2860.9 82.735V72.735ZM2842.03 77.3163C2837.26 80.5336 2834.47 85.1494 2834.47 90.8981H2844.47C2844.47 88.881 2845.25 87.2064 2847.62 85.6089L2842.03 77.3163ZM2834.47 90.8981C2834.47 95.3759 2836.25 99.2946 2839.43 102.471L2846.5 95.4001C2845.02 93.9173 2844.47 92.4775 2844.47 90.8981H2834.47ZM2839.37 102.411C2842.43 105.574 2847.42 108.18 2853.55 110.488L2857.07 101.129C2851.24 98.9326 2848.01 96.957 2846.56 95.4606L2839.37 102.411ZM2853.52 110.477L2863.54 114.321L2867.12 104.984L2857.1 101.14L2853.52 110.477ZM2863.55 114.326C2880.06 120.605 2889.82 126.346 2894.05 131.219L2901.6 124.663C2895.59 117.732 2883.68 111.28 2867.11 104.979L2863.55 114.326ZM2894.01 131.166C2898.25 136.185 2900.4 142.167 2900.4 149.375H2910.4C2910.4 139.964 2907.51 131.656 2901.65 124.716L2894.01 131.166ZM2900.4 149.375C2900.4 158.508 2896.54 166.675 2888.13 174.035L2894.72 181.56C2904.94 172.612 2910.4 161.831 2910.4 149.375H2900.4ZM2888.13 174.033C2880.13 181.024 2868.02 184.912 2851 184.912V194.912C2869.39 194.912 2884.23 190.724 2894.71 181.562L2888.13 174.033ZM2851 184.912C2836.46 184.912 2821.56 182.664 2806.3 178.13L2803.45 187.716C2819.56 192.501 2835.41 194.912 2851 194.912V184.912ZM2946.75 187H2941.75V192H2946.75V187ZM2946.75 80.6472H2951.75V75.6472H2946.75V80.6472ZM2929.16 80.6472H2924.16V85.6472H2929.16V80.6472ZM2929.16 59.0971V54.0971H2924.16V59.0971H2929.16ZM2946.75 59.0971V64.0971H2951.75V59.0971H2946.75ZM2958.99 11.6868L2962.4 15.3421L2962.4 15.3409L2958.99 11.6868ZM3025.38 4.58106H3030.38V0.764488L3026.7 -0.241959L3025.38 4.58106ZM3025.38 27.8785L3023.44 32.4874L3030.38 35.406V27.8785H3025.38ZM2989.62 23.9179L2992.02 28.3074L2992.04 28.2951L2992.06 28.2827L2989.62 23.9179ZM2983.45 31.1401L2978.9 29.0711L2978.88 29.0952L2978.87 29.1193L2983.45 31.1401ZM2981.23 59.0971H2976.23V64.0971H2981.23V59.0971ZM3013.62 59.0971H3018.62V54.0971H3013.62V59.0971ZM3013.62 80.6472V85.6472H3018.62V80.6472H3013.62ZM2981.23 80.6472V75.6472H2976.23V80.6472H2981.23ZM2981.23 187V192H2986.23V187H2981.23ZM2951.75 187V80.6472H2941.75V187H2951.75ZM2946.75 75.6472H2929.16V85.6472H2946.75V75.6472ZM2934.16 80.6472V59.0971H2924.16V80.6472H2934.16ZM2929.16 64.0971H2946.75V54.0971H2929.16V64.0971ZM2951.75 59.0971V49.8946H2941.75V59.0971H2951.75ZM2951.75 49.8946C2951.75 32.6088 2955.73 21.5683 2962.4 15.3421L2955.57 8.0315C2945.94 17.0262 2941.75 31.4576 2941.75 49.8946H2951.75ZM2962.4 15.3409C2969.43 8.77563 2979.7 5.15455 2993.93 5.15455V-4.84545C2978.04 -4.84545 2965.01 -0.778381 2955.57 8.03265L2962.4 15.3409ZM2993.93 5.15455C3003.62 5.15455 3013.66 6.55892 3024.06 9.40408L3026.7 -0.241959C3015.52 -3.29882 3004.59 -4.84545 2993.93 -4.84545V5.15455ZM3020.38 4.58106V27.8785H3030.38V4.58106H3020.38ZM3027.32 23.2696C3017.13 18.9844 3007.68 16.7047 2999.06 16.7047V26.7047C3005.96 26.7047 3014.06 28.5408 3023.44 32.4874L3027.32 23.2696ZM2999.06 16.7047C2994.73 16.7047 2990.71 17.583 2987.18 19.5532L2992.06 28.2827C2993.82 27.3018 2996.08 26.7047 2999.06 26.7047V16.7047ZM2987.23 19.5285C2983.47 21.5771 2980.77 24.9509 2978.9 29.0711L2988 33.2092C2989.23 30.4954 2990.65 29.0545 2992.02 28.3074L2987.23 19.5285ZM2978.87 29.1193C2976.94 33.5066 2976.23 40.2747 2976.23 48.6132H2986.23C2986.23 40.3329 2987.01 35.4523 2988.02 33.161L2978.87 29.1193ZM2976.23 48.6132V59.0971H2986.23V48.6132H2976.23ZM2981.23 64.0971H3013.62V54.0971H2981.23V64.0971ZM3008.62 59.0971V80.6472H3018.62V59.0971H3008.62ZM3013.62 75.6472H2981.23V85.6472H3013.62V75.6472ZM2976.23 80.6472V187H2986.23V80.6472H2976.23ZM2981.23 182H2946.75V192H2981.23V182ZM3121.25 187H3116.25V192H3121.25V187ZM3121.25 162.887H3126.25V145.5L3117.02 160.231L3121.25 162.887ZM3051.59 180.244L3048.24 183.954L3048.26 183.973L3048.28 183.992L3051.59 180.244ZM3040.76 59.0971V54.0971H3035.76V59.0971H3040.76ZM3075.24 59.0971H3080.24V54.0971H3075.24V59.0971ZM3077.1 155.199L3072.63 157.435L3072.66 157.49L3072.69 157.545L3077.1 155.199ZM3082.35 160.907L3079.75 165.181L3079.84 165.235L3079.93 165.285L3082.35 160.907ZM3104.59 158.111L3107.19 162.387L3107.21 162.373L3107.23 162.358L3104.59 158.111ZM3121.25 139.59L3125.44 142.322L3126.25 141.077V139.59H3121.25ZM3121.25 59.0971V54.0971H3116.25V59.0971H3121.25ZM3155.73 59.0971H3160.73V54.0971H3155.73V59.0971ZM3155.73 187V192H3160.73V187H3155.73ZM3126.25 187V162.887H3116.25V187H3126.25ZM3117.02 160.231C3111.18 169.532 3104.92 175.763 3098.35 179.351L3103.15 188.126C3111.65 183.482 3119.05 175.812 3125.49 165.543L3117.02 160.231ZM3098.35 179.351C3091.48 183.104 3084.61 184.912 3077.69 184.912V194.912C3086.44 194.912 3094.95 192.605 3103.15 188.126L3098.35 179.351ZM3077.69 184.912C3068.76 184.912 3061.25 182.103 3054.9 176.496L3048.28 183.992C3056.53 191.276 3066.42 194.912 3077.69 194.912V184.912ZM3054.94 176.533C3049.16 171.311 3045.76 162.686 3045.76 149.491H3035.76C3035.76 164.254 3039.58 176.13 3048.24 183.954L3054.94 176.533ZM3045.76 149.491V59.0971H3035.76V149.491H3045.76ZM3040.76 64.0971H3075.24V54.0971H3040.76V64.0971ZM3070.24 59.0971V140.988H3080.24V59.0971H3070.24ZM3070.24 140.988C3070.24 144.61 3070.4 147.775 3070.75 150.433C3071.09 153.016 3071.64 155.461 3072.63 157.435L3081.58 152.963C3081.32 152.452 3080.95 151.286 3080.66 149.132C3080.39 147.053 3080.24 144.354 3080.24 140.988H3070.24ZM3072.69 157.545C3074.38 160.738 3076.73 163.345 3079.75 165.181L3084.94 156.633C3083.61 155.828 3082.46 154.63 3081.52 152.853L3072.69 157.545ZM3079.93 165.285C3082.96 166.959 3086.29 167.771 3089.8 167.771V157.771C3087.88 157.771 3086.23 157.34 3084.76 156.529L3079.93 165.285ZM3089.8 167.771C3095.66 167.771 3101.48 165.843 3107.19 162.387L3102 153.835C3097.45 156.592 3093.41 157.771 3089.8 157.771V167.771ZM3107.23 162.358C3113.3 158.591 3119.33 151.679 3125.44 142.322L3117.06 136.857C3111.21 145.828 3106.14 151.263 3101.96 153.864L3107.23 162.358ZM3126.25 139.59V59.0971H3116.25V139.59H3126.25ZM3121.25 64.0971H3155.73V54.0971H3121.25V64.0971ZM3150.73 59.0971V187H3160.73V59.0971H3150.73ZM3155.73 182H3121.25V192H3155.73V182ZM3198.95 187H3193.95V192H3198.95V187ZM3198.95 3.06673V-1.93327H3193.95V3.06673H3198.95ZM3233.43 3.06673H3238.43V-1.93327H3233.43V3.06673ZM3233.43 187V192H3238.43V187H3233.43ZM3203.95 187V3.06673H3193.95V187H3203.95ZM3198.95 8.06673H3233.43V-1.93327H3198.95V8.06673ZM3228.43 3.06673V187H3238.43V3.06673H3228.43ZM3233.43 182H3198.95V192H3233.43V182ZM3276.53 187H3271.53V192H3276.53V187ZM3276.53 3.06673V-1.93327H3271.53V3.06673H3276.53ZM3311.01 3.06673H3316.01V-1.93327H3311.01V3.06673ZM3311.01 187V192H3316.01V187H3311.01ZM3281.53 187V3.06673H3271.53V187H3281.53ZM3276.53 8.06673H3311.01V-1.93327H3276.53V8.06673ZM3306.01 3.06673V187H3316.01V3.06673H3306.01ZM3311.01 182H3276.53V192H3311.01V182ZM3354.58 233.012L3350.35 230.346L3345.51 238.012H3354.58V233.012ZM3383.58 187L3387.81 189.666L3389.13 187.577L3388.27 185.262L3383.58 187ZM3336.17 59.0971V54.0971H3328.98L3331.48 60.8349L3336.17 59.0971ZM3373.21 59.0971L3377.9 57.3597L3376.69 54.0971H3373.21V59.0971ZM3404.9 144.599L3400.21 146.336L3404.5 157.915L3409.47 146.613L3404.9 144.599ZM3442.52 59.0971V54.0971H3439.26L3437.95 57.0832L3442.52 59.0971ZM3468.73 59.0971L3473.29 61.1645L3476.5 54.0971H3468.73V59.0971ZM3389.75 233.012V238.012H3392.98L3394.31 235.08L3389.75 233.012ZM3358.81 235.679L3387.81 189.666L3379.35 184.334L3350.35 230.346L3358.81 235.679ZM3388.27 185.262L3340.86 57.3592L3331.48 60.8349L3378.89 188.738L3388.27 185.262ZM3336.17 64.0971H3373.21V54.0971H3336.17V64.0971ZM3368.53 60.8345L3400.21 146.336L3409.59 142.861L3377.9 57.3597L3368.53 60.8345ZM3409.47 146.613L3447.1 61.111L3437.95 57.0832L3400.32 142.585L3409.47 146.613ZM3442.52 64.0971H3468.73V54.0971H3442.52V64.0971ZM3464.18 57.0297L3385.2 230.945L3394.31 235.08L3473.29 61.1645L3464.18 57.0297ZM3389.75 228.012H3354.58V238.012H3389.75V228.012Z" fill="#1B1B1B" mask="url(#path-3-outside-2_0_1)"/>
<mask id="path-5-outside-3_0_1" maskUnits="userSpaceOnUse" x="971" y="-2" width="909" height="197" fill="black">
<rect fill="white" x="971" y="-2" width="909" height="197"/>
<path d="M976.55 187V14.599H1050.75C1070.63 14.599 1086.09 17.7829 1097.11 24.1509C1108.22 30.5189 1117.03 39.9155 1123.56 52.3408C1130.16 64.6885 1133.46 79.6376 1133.46 97.1884C1133.46 114.351 1130.31 129.688 1124.02 143.201C1117.81 156.713 1108.72 167.391 1096.76 175.235C1084.81 183.078 1068.42 187 1047.61 187H976.55ZM1012.43 162.538H1039.22C1053.2 162.538 1063.88 160.363 1071.25 156.014C1078.71 151.666 1084.57 144.327 1088.84 133.998C1093.19 123.592 1095.37 112.021 1095.37 99.2851C1095.37 87.0928 1093.27 76.2983 1089.08 66.9017C1084.88 57.5051 1079.06 50.3994 1071.6 45.5846C1064.23 40.6921 1051.72 38.2459 1034.09 38.2459H1012.43V162.538ZM1269.86 182.69C1253.48 187.505 1237.95 189.912 1223.27 189.912C1209.37 189.912 1197.18 187.349 1186.69 182.224C1176.29 177.021 1168.25 168.944 1162.58 157.995C1156.99 146.967 1154.19 135.008 1154.19 122.117C1154.19 110.157 1156.56 99.1298 1161.3 89.0343C1166.11 78.8611 1173.06 70.8623 1182.15 65.0379C1191.31 59.1359 1202.57 56.1849 1215.93 56.1849C1232.32 56.1849 1245.4 61.388 1255.19 71.7942C1264.97 82.2004 1269.86 101.576 1269.86 129.921H1190.54C1191.31 138.541 1193.26 145.336 1196.36 150.307C1199.55 155.277 1203.82 159.237 1209.18 162.188C1214.53 165.062 1221.72 166.498 1230.73 166.498C1242.3 166.498 1255.34 163.819 1269.86 158.461V182.69ZM1190.07 110.468H1235.97C1235.97 98.7415 1233.99 90.3545 1230.03 85.3067C1226.14 80.2589 1221.1 77.735 1214.88 77.735C1208.13 77.735 1202.57 80.5307 1198.23 86.1221C1193.88 91.6358 1191.16 99.7511 1190.07 110.468ZM1305.51 187V3.06673H1339.99V187H1305.51ZM1487.23 182.69C1470.84 187.505 1455.31 189.912 1440.64 189.912C1426.73 189.912 1414.54 187.349 1404.06 182.224C1393.65 177.021 1385.61 168.944 1379.95 157.995C1374.35 146.967 1371.56 135.008 1371.56 122.117C1371.56 110.157 1373.93 99.1298 1378.66 89.0343C1383.48 78.8611 1390.43 70.8623 1399.52 65.0379C1408.68 59.1359 1419.94 56.1849 1433.3 56.1849C1449.68 56.1849 1462.77 61.388 1472.55 71.7942C1482.34 82.2004 1487.23 101.576 1487.23 129.921H1407.9C1408.68 138.541 1410.62 145.336 1413.73 150.307C1416.91 155.277 1421.18 159.237 1426.54 162.188C1431.9 165.062 1439.08 166.498 1448.09 166.498C1459.66 166.498 1472.71 163.819 1487.23 158.461V182.69ZM1407.44 110.468H1453.33C1453.33 98.7415 1451.35 90.3545 1447.39 85.3067C1443.51 80.2589 1438.46 77.735 1432.25 77.735C1425.49 77.735 1419.94 80.5307 1415.59 86.1221C1411.24 91.6358 1408.52 99.7511 1407.44 110.468ZM1588.81 186.301C1580.58 188.708 1574.09 189.912 1569.35 189.912C1558.09 189.912 1549.36 188.32 1543.14 185.136C1536.93 181.952 1532.27 177.642 1529.17 172.206C1526.06 166.692 1524.51 158.616 1524.51 147.977V80.6472H1510.18V59.0971H1524.51V37.5469L1558.99 33.5864V59.0971H1586.36V80.6472H1558.99V143.434C1558.99 152.675 1560.62 158.927 1563.88 162.188C1567.14 165.372 1571.92 166.964 1578.21 166.964C1581.16 166.964 1584.69 166.421 1588.81 165.333V186.301ZM1723.7 182.69C1707.31 187.505 1691.78 189.912 1677.1 189.912C1663.2 189.912 1651.01 187.349 1640.53 182.224C1630.12 177.021 1622.08 168.944 1616.41 157.995C1610.82 146.967 1608.03 135.008 1608.03 122.117C1608.03 110.157 1610.4 99.1298 1615.13 89.0343C1619.95 78.8611 1626.9 70.8623 1635.98 65.0379C1645.15 59.1359 1656.41 56.1849 1669.77 56.1849C1686.15 56.1849 1699.24 61.388 1709.02 71.7942C1718.81 82.2004 1723.7 101.576 1723.7 129.921H1644.37C1645.15 138.541 1647.09 145.336 1650.2 150.307C1653.38 155.277 1657.65 159.237 1663.01 162.188C1668.37 165.062 1675.55 166.498 1684.56 166.498C1696.13 166.498 1709.18 163.819 1723.7 158.461V182.69ZM1643.91 110.468H1689.8C1689.8 98.7415 1687.82 90.3545 1683.86 85.3067C1679.98 80.2589 1674.93 77.735 1668.72 77.735C1661.96 77.735 1656.41 80.5307 1652.06 86.1221C1647.71 91.6358 1644.99 99.7511 1643.91 110.468ZM1839.84 187V162.887C1835.41 171.895 1829.7 178.652 1822.71 183.156C1815.8 187.66 1807.57 189.912 1798.02 189.912C1782.33 189.912 1770.18 184.127 1761.56 172.556C1752.94 160.907 1748.63 145.569 1748.63 126.543C1748.63 106.43 1753.44 89.6944 1763.07 76.3372C1772.7 62.9023 1786.14 56.1849 1803.38 56.1849C1808.04 56.1849 1812.31 56.6897 1816.19 57.6992C1820.07 58.6311 1823.8 60.1066 1827.37 62.1257C1830.94 64.1448 1835.1 67.4453 1839.84 72.0271V3.06673H1874.43V187H1839.84ZM1839.84 92.5289C1835.02 87.0928 1830.48 83.4041 1826.21 81.4626C1821.94 79.5212 1817.59 78.5504 1813.16 78.5504C1803.84 78.5504 1796.85 83.0546 1792.19 92.0629C1787.61 100.994 1785.32 111.516 1785.32 123.631C1785.32 135.59 1787.46 145.142 1791.73 152.287C1796.08 159.354 1802.33 162.887 1810.48 162.887C1815.68 162.887 1820.81 161.101 1825.86 157.529C1830.98 153.879 1835.64 149.103 1839.84 143.201V92.5289Z"/>
</mask>
<path d="M976.55 187V14.599H1050.75C1070.63 14.599 1086.09 17.7829 1097.11 24.1509C1108.22 30.5189 1117.03 39.9155 1123.56 52.3408C1130.16 64.6885 1133.46 79.6376 1133.46 97.1884C1133.46 114.351 1130.31 129.688 1124.02 143.201C1117.81 156.713 1108.72 167.391 1096.76 175.235C1084.81 183.078 1068.42 187 1047.61 187H976.55ZM1012.43 162.538H1039.22C1053.2 162.538 1063.88 160.363 1071.25 156.014C1078.71 151.666 1084.57 144.327 1088.84 133.998C1093.19 123.592 1095.37 112.021 1095.37 99.2851C1095.37 87.0928 1093.27 76.2983 1089.08 66.9017C1084.88 57.5051 1079.06 50.3994 1071.6 45.5846C1064.23 40.6921 1051.72 38.2459 1034.09 38.2459H1012.43V162.538ZM1269.86 182.69C1253.48 187.505 1237.95 189.912 1223.27 189.912C1209.37 189.912 1197.18 187.349 1186.69 182.224C1176.29 177.021 1168.25 168.944 1162.58 157.995C1156.99 146.967 1154.19 135.008 1154.19 122.117C1154.19 110.157 1156.56 99.1298 1161.3 89.0343C1166.11 78.8611 1173.06 70.8623 1182.15 65.0379C1191.31 59.1359 1202.57 56.1849 1215.93 56.1849C1232.32 56.1849 1245.4 61.388 1255.19 71.7942C1264.97 82.2004 1269.86 101.576 1269.86 129.921H1190.54C1191.31 138.541 1193.26 145.336 1196.36 150.307C1199.55 155.277 1203.82 159.237 1209.18 162.188C1214.53 165.062 1221.72 166.498 1230.73 166.498C1242.3 166.498 1255.34 163.819 1269.86 158.461V182.69ZM1190.07 110.468H1235.97C1235.97 98.7415 1233.99 90.3545 1230.03 85.3067C1226.14 80.2589 1221.1 77.735 1214.88 77.735C1208.13 77.735 1202.57 80.5307 1198.23 86.1221C1193.88 91.6358 1191.16 99.7511 1190.07 110.468ZM1305.51 187V3.06673H1339.99V187H1305.51ZM1487.23 182.69C1470.84 187.505 1455.31 189.912 1440.64 189.912C1426.73 189.912 1414.54 187.349 1404.06 182.224C1393.65 177.021 1385.61 168.944 1379.95 157.995C1374.35 146.967 1371.56 135.008 1371.56 122.117C1371.56 110.157 1373.93 99.1298 1378.66 89.0343C1383.48 78.8611 1390.43 70.8623 1399.52 65.0379C1408.68 59.1359 1419.94 56.1849 1433.3 56.1849C1449.68 56.1849 1462.77 61.388 1472.55 71.7942C1482.34 82.2004 1487.23 101.576 1487.23 129.921H1407.9C1408.68 138.541 1410.62 145.336 1413.73 150.307C1416.91 155.277 1421.18 159.237 1426.54 162.188C1431.9 165.062 1439.08 166.498 1448.09 166.498C1459.66 166.498 1472.71 163.819 1487.23 158.461V182.69ZM1407.44 110.468H1453.33C1453.33 98.7415 1451.35 90.3545 1447.39 85.3067C1443.51 80.2589 1438.46 77.735 1432.25 77.735C1425.49 77.735 1419.94 80.5307 1415.59 86.1221C1411.24 91.6358 1408.52 99.7511 1407.44 110.468ZM1588.81 186.301C1580.58 188.708 1574.09 189.912 1569.35 189.912C1558.09 189.912 1549.36 188.32 1543.14 185.136C1536.93 181.952 1532.27 177.642 1529.17 172.206C1526.06 166.692 1524.51 158.616 1524.51 147.977V80.6472H1510.18V59.0971H1524.51V37.5469L1558.99 33.5864V59.0971H1586.36V80.6472H1558.99V143.434C1558.99 152.675 1560.62 158.927 1563.88 162.188C1567.14 165.372 1571.92 166.964 1578.21 166.964C1581.16 166.964 1584.69 166.421 1588.81 165.333V186.301ZM1723.7 182.69C1707.31 187.505 1691.78 189.912 1677.1 189.912C1663.2 189.912 1651.01 187.349 1640.53 182.224C1630.12 177.021 1622.08 168.944 1616.41 157.995C1610.82 146.967 1608.03 135.008 1608.03 122.117C1608.03 110.157 1610.4 99.1298 1615.13 89.0343C1619.95 78.8611 1626.9 70.8623 1635.98 65.0379C1645.15 59.1359 1656.41 56.1849 1669.77 56.1849C1686.15 56.1849 1699.24 61.388 1709.02 71.7942C1718.81 82.2004 1723.7 101.576 1723.7 129.921H1644.37C1645.15 138.541 1647.09 145.336 1650.2 150.307C1653.38 155.277 1657.65 159.237 1663.01 162.188C1668.37 165.062 1675.55 166.498 1684.56 166.498C1696.13 166.498 1709.18 163.819 1723.7 158.461V182.69ZM1643.91 110.468H1689.8C1689.8 98.7415 1687.82 90.3545 1683.86 85.3067C1679.98 80.2589 1674.93 77.735 1668.72 77.735C1661.96 77.735 1656.41 80.5307 1652.06 86.1221C1647.71 91.6358 1644.99 99.7511 1643.91 110.468ZM1839.84 187V162.887C1835.41 171.895 1829.7 178.652 1822.71 183.156C1815.8 187.66 1807.57 189.912 1798.02 189.912C1782.33 189.912 1770.18 184.127 1761.56 172.556C1752.94 160.907 1748.63 145.569 1748.63 126.543C1748.63 106.43 1753.44 89.6944 1763.07 76.3372C1772.7 62.9023 1786.14 56.1849 1803.38 56.1849C1808.04 56.1849 1812.31 56.6897 1816.19 57.6992C1820.07 58.6311 1823.8 60.1066 1827.37 62.1257C1830.94 64.1448 1835.1 67.4453 1839.84 72.0271V3.06673H1874.43V187H1839.84ZM1839.84 92.5289C1835.02 87.0928 1830.48 83.4041 1826.21 81.4626C1821.94 79.5212 1817.59 78.5504 1813.16 78.5504C1803.84 78.5504 1796.85 83.0546 1792.19 92.0629C1787.61 100.994 1785.32 111.516 1785.32 123.631C1785.32 135.59 1787.46 145.142 1791.73 152.287C1796.08 159.354 1802.33 162.887 1810.48 162.887C1815.68 162.887 1820.81 161.101 1825.86 157.529C1830.98 153.879 1835.64 149.103 1839.84 143.201V92.5289Z" fill="#1B1B1B"/>
<path d="M976.55 187H971.55V192H976.55V187ZM976.55 14.599V9.59896H971.55V14.599H976.55ZM1097.11 24.1509L1094.61 28.4808L1094.62 28.4846L1094.63 28.4884L1097.11 24.1509ZM1123.56 52.3408L1119.13 54.665L1119.14 54.6816L1119.15 54.6981L1123.56 52.3408ZM1124.02 143.201L1119.49 141.091L1119.49 141.101L1119.48 141.112L1124.02 143.201ZM1012.43 162.538H1007.43V167.538H1012.43V162.538ZM1071.25 156.014L1068.73 151.696L1068.72 151.701L1068.72 151.707L1071.25 156.014ZM1088.84 133.998L1084.23 132.07L1084.23 132.079L1084.22 132.088L1088.84 133.998ZM1089.08 66.9017L1084.51 68.9394L1089.08 66.9017ZM1071.6 45.5845L1068.84 49.7515L1068.87 49.7683L1068.89 49.7847L1071.6 45.5845ZM1012.43 38.2459V33.2459H1007.43V38.2459H1012.43ZM981.55 187V14.599H971.55V187H981.55ZM976.55 19.599H1050.75V9.59896H976.55V19.599ZM1050.75 19.599C1070.2 19.599 1084.66 22.732 1094.61 28.4808L1099.61 19.821C1087.52 12.8339 1071.06 9.59896 1050.75 9.59896V19.599ZM1094.63 28.4884C1104.83 34.3382 1113 42.9975 1119.13 54.665L1127.98 50.0166C1121.06 36.8335 1111.61 26.6995 1099.6 19.8134L1094.63 28.4884ZM1119.15 54.6981C1125.27 66.1593 1128.46 80.2555 1128.46 97.1884H1138.46C1138.46 79.0198 1135.04 63.2176 1127.97 49.9836L1119.15 54.6981ZM1128.46 97.1884C1128.46 113.732 1125.43 128.332 1119.49 141.091L1128.56 145.311C1135.2 131.044 1138.46 114.97 1138.46 97.1884H1128.46ZM1119.48 141.112C1113.64 153.808 1105.17 163.746 1094.02 171.054L1099.51 179.416C1112.28 171.037 1121.98 159.619 1128.57 145.289L1119.48 141.112ZM1094.02 171.054C1083.17 178.171 1067.87 182 1047.61 182V192C1068.97 192 1086.44 187.985 1099.51 179.416L1094.02 171.054ZM1047.61 182H976.55V192H1047.61V182ZM1012.43 167.538H1039.22V157.538H1012.43V167.538ZM1039.22 167.538C1053.59 167.538 1065.3 165.326 1073.79 160.322L1068.72 151.707C1062.45 155.401 1052.81 157.538 1039.22 157.538V167.538ZM1073.77 160.333C1082.42 155.29 1088.9 146.949 1093.46 135.909L1084.22 132.088C1080.25 141.705 1075 148.042 1068.73 151.696L1073.77 160.333ZM1093.46 135.926C1098.09 124.835 1100.37 112.598 1100.37 99.2851H1090.37C1090.37 111.444 1088.29 122.349 1084.23 132.07L1093.46 135.926ZM1100.37 99.2851C1100.37 86.5187 1098.17 75.0093 1093.64 64.864L1084.51 68.9394C1088.37 77.5874 1090.37 87.667 1090.37 99.2851H1100.37ZM1093.64 64.864C1089.12 54.7266 1082.71 46.8048 1074.32 41.3844L1068.89 49.7847C1075.41 53.9939 1080.65 60.2836 1084.51 68.9394L1093.64 64.864ZM1074.37 41.4176C1065.69 35.6625 1051.9 33.2459 1034.09 33.2459V43.2459C1051.55 43.2459 1062.76 45.7217 1068.84 49.7515L1074.37 41.4176ZM1034.09 33.2459H1012.43V43.2459H1034.09V33.2459ZM1007.43 38.2459V162.538H1017.43V38.2459H1007.43ZM1269.86 182.69L1271.27 187.487L1274.86 186.432V182.69H1269.86ZM1186.69 182.224L1184.46 186.696L1184.48 186.706L1184.5 186.716L1186.69 182.224ZM1162.58 157.995L1158.12 160.256L1158.13 160.275L1158.14 160.294L1162.58 157.995ZM1161.3 89.0343L1156.78 86.8953L1156.78 86.9028L1156.77 86.9103L1161.3 89.0343ZM1182.15 65.0379L1184.85 69.2473L1184.86 69.2415L1182.15 65.0379ZM1269.86 129.921V134.921H1274.86V129.921H1269.86ZM1190.54 129.921V124.921H1185.07L1185.56 130.37L1190.54 129.921ZM1196.36 150.307L1192.12 152.957L1192.14 152.98L1192.15 153.004L1196.36 150.307ZM1209.18 162.188L1206.76 166.568L1206.79 166.581L1206.81 166.595L1209.18 162.188ZM1269.86 158.461H1274.86V151.286L1268.13 153.77L1269.86 158.461ZM1190.07 110.468L1185.1 109.963L1184.54 115.468H1190.07V110.468ZM1235.97 110.468V115.468H1240.97V110.468H1235.97ZM1230.03 85.3067L1226.06 88.3552L1226.08 88.3743L1226.09 88.3931L1230.03 85.3067ZM1198.23 86.1221L1202.15 89.2185L1202.16 89.2052L1202.17 89.1918L1198.23 86.1221ZM1268.46 177.893C1252.45 182.595 1237.4 184.912 1223.27 184.912V194.912C1238.5 194.912 1254.5 192.415 1271.27 187.487L1268.46 177.893ZM1223.27 184.912C1209.99 184.912 1198.57 182.465 1188.89 177.732L1184.5 186.716C1195.78 192.234 1208.75 194.912 1223.27 194.912V184.912ZM1188.93 177.752C1179.53 173.051 1172.23 165.766 1167.02 155.696L1158.14 160.294C1164.26 172.123 1173.05 180.991 1184.46 186.696L1188.93 177.752ZM1167.04 155.734C1161.82 145.437 1159.19 134.257 1159.19 122.117H1149.19C1149.19 135.759 1152.16 148.497 1158.12 160.256L1167.04 155.734ZM1159.19 122.117C1159.19 110.837 1161.42 100.542 1165.83 91.1582L1156.77 86.9103C1151.7 97.7178 1149.19 109.477 1149.19 122.117H1159.19ZM1165.82 91.1732C1170.25 81.8091 1176.59 74.5436 1184.85 69.2473L1179.45 60.8285C1169.54 67.181 1161.98 75.913 1156.78 86.8953L1165.82 91.1732ZM1184.86 69.2415C1193.05 63.9658 1203.32 61.1849 1215.93 61.1849V51.1849C1201.83 51.1849 1189.58 54.306 1179.44 60.8343L1184.86 69.2415ZM1215.93 61.1849C1231.16 61.1849 1242.85 65.9694 1251.54 75.2193L1258.83 68.369C1247.96 56.8065 1233.47 51.1849 1215.93 51.1849V61.1849ZM1251.54 75.2193C1259.93 84.1322 1264.86 101.767 1264.86 129.921H1274.86C1274.86 101.385 1270.02 80.2685 1258.83 68.369L1251.54 75.2193ZM1269.86 124.921H1190.54V134.921H1269.86V124.921ZM1185.56 130.37C1186.37 139.428 1188.45 147.08 1192.12 152.957L1200.6 147.657C1198.06 143.593 1196.25 137.655 1195.52 129.473L1185.56 130.37ZM1192.15 153.004C1195.8 158.702 1200.7 163.23 1206.76 166.568L1211.59 157.808C1206.93 155.244 1203.29 151.851 1200.57 147.609L1192.15 153.004ZM1206.81 166.595C1213.16 170.001 1221.26 171.498 1230.73 171.498V161.498C1222.17 161.498 1215.9 160.123 1211.54 157.782L1206.81 166.595ZM1230.73 171.498C1243.05 171.498 1256.7 168.65 1271.6 163.151L1268.13 153.77C1253.99 158.989 1241.54 161.498 1230.73 161.498V171.498ZM1264.86 158.461V182.69H1274.86V158.461H1264.86ZM1190.07 115.468H1235.97V105.468H1190.07V115.468ZM1240.97 110.468C1240.97 98.4356 1238.99 88.6253 1233.96 82.2202L1226.09 88.3931C1228.99 92.0836 1230.97 99.0475 1230.97 110.468H1240.97ZM1233.99 82.2581C1229.19 76.0161 1222.69 72.735 1214.88 72.735V82.735C1219.5 82.735 1223.1 84.5018 1226.06 88.3552L1233.99 82.2581ZM1214.88 72.735C1206.5 72.735 1199.52 76.3116 1194.28 83.0524L1202.17 89.1918C1205.63 84.7498 1209.75 82.735 1214.88 82.735V72.735ZM1194.3 83.0257C1189.13 89.5848 1186.23 98.768 1185.1 109.963L1195.05 110.973C1196.08 100.734 1198.63 93.6869 1202.15 89.2185L1194.3 83.0257ZM1305.51 187H1300.51V192H1305.51V187ZM1305.51 3.06673V-1.93327H1300.51V3.06673H1305.51ZM1339.99 3.06673H1344.99V-1.93327H1339.99V3.06673ZM1339.99 187V192H1344.99V187H1339.99ZM1310.51 187V3.06673H1300.51V187H1310.51ZM1305.51 8.06673H1339.99V-1.93327H1305.51V8.06673ZM1334.99 3.06673V187H1344.99V3.06673H1334.99ZM1339.99 182H1305.51V192H1339.99V182ZM1487.23 182.69L1488.64 187.487L1492.23 186.432V182.69H1487.23ZM1404.06 182.224L1401.82 186.696L1401.84 186.706L1401.86 186.716L1404.06 182.224ZM1379.95 157.995L1375.49 160.256L1375.5 160.275L1375.51 160.294L1379.95 157.995ZM1378.66 89.0343L1374.14 86.8953L1374.14 86.9028L1374.14 86.9103L1378.66 89.0343ZM1399.52 65.0379L1402.21 69.2473L1402.22 69.2415L1399.52 65.0379ZM1487.23 129.921V134.921H1492.23V129.921H1487.23ZM1407.9 129.921V124.921H1402.43L1402.92 130.37L1407.9 129.921ZM1413.73 150.307L1409.49 152.957L1409.5 152.98L1409.52 153.004L1413.73 150.307ZM1426.54 162.188L1424.13 166.568L1424.15 166.581L1424.18 166.595L1426.54 162.188ZM1487.23 158.461H1492.23V151.286L1485.5 153.77L1487.23 158.461ZM1407.44 110.468L1402.46 109.963L1401.9 115.468H1407.44V110.468ZM1453.33 110.468V115.468H1458.33V110.468H1453.33ZM1447.39 85.3067L1443.43 88.3552L1443.44 88.3743L1443.46 88.3931L1447.39 85.3067ZM1415.59 86.1221L1419.52 89.2185L1419.53 89.2052L1419.54 89.1918L1415.59 86.1221ZM1485.82 177.893C1469.82 182.595 1454.76 184.912 1440.64 184.912V194.912C1455.86 194.912 1471.87 192.415 1488.64 187.487L1485.82 177.893ZM1440.64 184.912C1427.35 184.912 1415.94 182.465 1406.25 177.732L1401.86 186.716C1413.15 192.234 1426.12 194.912 1440.64 194.912V184.912ZM1406.29 177.752C1396.89 173.051 1389.6 165.766 1384.39 155.696L1375.51 160.294C1381.63 172.123 1390.41 180.991 1401.82 186.696L1406.29 177.752ZM1384.4 155.734C1379.18 145.437 1376.56 134.257 1376.56 122.117H1366.56C1366.56 135.759 1369.52 148.497 1375.49 160.256L1384.4 155.734ZM1376.56 122.117C1376.56 110.837 1378.79 100.542 1383.19 91.1582L1374.14 86.9103C1369.07 97.7178 1366.56 109.477 1366.56 122.117H1376.56ZM1383.18 91.1732C1387.62 81.8091 1393.95 74.5436 1402.21 69.2473L1396.82 60.8285C1386.91 67.181 1379.34 75.913 1374.14 86.8953L1383.18 91.1732ZM1402.22 69.2415C1410.41 63.9658 1420.68 61.1849 1433.3 61.1849V51.1849C1419.2 51.1849 1406.94 54.306 1396.81 60.8343L1402.22 69.2415ZM1433.3 61.1849C1448.53 61.1849 1460.21 65.9694 1468.91 75.2193L1476.2 68.369C1465.32 56.8065 1450.84 51.1849 1433.3 51.1849V61.1849ZM1468.91 75.2193C1477.29 84.1322 1482.23 101.767 1482.23 129.921H1492.23C1492.23 101.385 1487.38 80.2685 1476.2 68.369L1468.91 75.2193ZM1487.23 124.921H1407.9V134.921H1487.23V124.921ZM1402.92 130.37C1403.74 139.428 1405.81 147.08 1409.49 152.957L1417.97 147.657C1415.43 143.593 1413.62 137.655 1412.88 129.473L1402.92 130.37ZM1409.52 153.004C1413.17 158.702 1418.07 163.23 1424.13 166.568L1428.95 157.808C1424.3 155.244 1420.65 151.851 1417.94 147.609L1409.52 153.004ZM1424.18 166.595C1430.53 170.001 1438.62 171.498 1448.09 171.498V161.498C1439.54 161.498 1433.27 160.123 1428.9 157.782L1424.18 166.595ZM1448.09 171.498C1460.41 171.498 1474.06 168.65 1488.96 163.151L1485.5 153.77C1471.36 158.989 1458.91 161.498 1448.09 161.498V171.498ZM1482.23 158.461V182.69H1492.23V158.461H1482.23ZM1407.44 115.468H1453.33V105.468H1407.44V115.468ZM1458.33 110.468C1458.33 98.4356 1456.35 88.6253 1451.33 82.2202L1443.46 88.3931C1446.35 92.0836 1448.33 99.0475 1448.33 110.468H1458.33ZM1451.35 82.2581C1446.55 76.0161 1440.06 72.735 1432.25 72.735V82.735C1436.86 82.735 1440.46 84.5018 1443.43 88.3552L1451.35 82.2581ZM1432.25 72.735C1423.86 72.735 1416.89 76.3116 1411.64 83.0524L1419.54 89.1918C1422.99 84.7498 1427.12 82.735 1432.25 82.735V72.735ZM1411.66 83.0257C1406.49 89.5848 1403.6 98.768 1402.46 109.963L1412.41 110.973C1413.45 100.734 1415.99 93.6869 1419.52 89.2185L1411.66 83.0257ZM1588.81 186.301L1590.21 191.1L1593.81 190.048V186.301H1588.81ZM1543.14 185.136L1540.86 189.586L1543.14 185.136ZM1529.17 172.206L1524.81 174.66L1524.82 174.674L1524.82 174.687L1529.17 172.206ZM1524.51 80.6472H1529.51V75.6472H1524.51V80.6472ZM1510.18 80.6472H1505.18V85.6472H1510.18V80.6472ZM1510.18 59.0971V54.0971H1505.18V59.0971H1510.18ZM1524.51 59.0971V64.0971H1529.51V59.0971H1524.51ZM1524.51 37.5469L1523.94 32.5796L1519.51 33.0884V37.5469H1524.51ZM1558.99 33.5864H1563.99V27.9792L1558.42 28.619L1558.99 33.5864ZM1558.99 59.0971H1553.99V64.0971H1558.99V59.0971ZM1586.36 59.0971H1591.36V54.0971H1586.36V59.0971ZM1586.36 80.6472V85.6472H1591.36V80.6472H1586.36ZM1558.99 80.6472V75.6472H1553.99V80.6472H1558.99ZM1563.88 162.188L1560.34 165.724L1560.36 165.745L1560.39 165.766L1563.88 162.188ZM1588.81 165.333H1593.81V158.841L1587.53 160.499L1588.81 165.333ZM1587.4 181.502C1579.32 183.865 1573.38 184.912 1569.35 184.912V194.912C1574.8 194.912 1581.83 193.552 1590.21 191.1L1587.4 181.502ZM1569.35 184.912C1558.45 184.912 1550.63 183.353 1545.42 180.687L1540.86 189.586C1548.09 193.288 1557.73 194.912 1569.35 194.912V184.912ZM1545.42 180.687C1539.97 177.892 1536.08 174.224 1533.51 169.725L1524.82 174.687C1528.47 181.06 1533.89 186.012 1540.86 189.586L1545.42 180.687ZM1533.52 169.752C1531.03 165.336 1529.51 158.273 1529.51 147.977H1519.51C1519.51 158.959 1521.08 168.049 1524.81 174.66L1533.52 169.752ZM1529.51 147.977V80.6472H1519.51V147.977H1529.51ZM1524.51 75.6472H1510.18V85.6472H1524.51V75.6472ZM1515.18 80.6472V59.0971H1505.18V80.6472H1515.18ZM1510.18 64.0971H1524.51V54.0971H1510.18V64.0971ZM1529.51 59.0971V37.5469H1519.51V59.0971H1529.51ZM1525.08 42.5143L1559.56 38.5537L1558.42 28.619L1523.94 32.5796L1525.08 42.5143ZM1553.99 33.5864V59.0971H1563.99V33.5864H1553.99ZM1558.99 64.0971H1586.36V54.0971H1558.99V64.0971ZM1581.36 59.0971V80.6472H1591.36V59.0971H1581.36ZM1586.36 75.6472H1558.99V85.6472H1586.36V75.6472ZM1553.99 80.6472V143.434H1563.99V80.6472H1553.99ZM1553.99 143.434C1553.99 152.848 1555.56 160.941 1560.34 165.724L1567.41 158.653C1565.67 156.912 1563.99 152.503 1563.99 143.434H1553.99ZM1560.39 165.766C1564.89 170.162 1571.12 171.964 1578.21 171.964V161.964C1572.72 161.964 1569.39 160.582 1567.37 158.61L1560.39 165.766ZM1578.21 171.964C1581.73 171.964 1585.72 171.321 1590.08 170.168L1587.53 160.499C1583.66 161.52 1580.58 161.964 1578.21 161.964V171.964ZM1583.81 165.333V186.301H1593.81V165.333H1583.81ZM1723.7 182.69L1725.11 187.487L1728.7 186.432V182.69H1723.7ZM1640.53 182.224L1638.29 186.696L1638.31 186.706L1638.33 186.716L1640.53 182.224ZM1616.41 157.995L1611.95 160.256L1611.96 160.275L1611.97 160.294L1616.41 157.995ZM1615.13 89.0343L1610.61 86.8953L1610.61 86.9028L1610.61 86.9103L1615.13 89.0343ZM1635.98 65.0379L1638.68 69.2473L1638.69 69.2415L1635.98 65.0379ZM1723.7 129.921V134.921H1728.7V129.921H1723.7ZM1644.37 129.921V124.921H1638.9L1639.39 130.37L1644.37 129.921ZM1650.2 150.307L1645.96 152.957L1645.97 152.98L1645.99 153.004L1650.2 150.307ZM1663.01 162.188L1660.6 166.568L1660.62 166.581L1660.65 166.595L1663.01 162.188ZM1723.7 158.461H1728.7V151.286L1721.97 153.77L1723.7 158.461ZM1643.91 110.468L1638.93 109.963L1638.37 115.468H1643.91V110.468ZM1689.8 110.468V115.468H1694.8V110.468H1689.8ZM1683.86 85.3067L1679.9 88.3552L1679.91 88.3743L1679.93 88.3931L1683.86 85.3067ZM1652.06 86.1221L1655.99 89.2185L1656 89.2052L1656.01 89.1918L1652.06 86.1221ZM1722.29 177.893C1706.29 182.595 1691.23 184.912 1677.1 184.912V194.912C1692.33 194.912 1708.34 192.415 1725.11 187.487L1722.29 177.893ZM1677.1 184.912C1663.82 184.912 1652.4 182.465 1642.72 177.732L1638.33 186.716C1649.62 192.234 1662.59 194.912 1677.1 194.912V184.912ZM1642.76 177.752C1633.36 173.051 1626.07 165.766 1620.85 155.696L1611.97 160.294C1618.1 172.123 1626.88 180.991 1638.29 186.696L1642.76 177.752ZM1620.87 155.734C1615.65 145.437 1613.03 134.257 1613.03 122.117H1603.03C1603.03 135.759 1605.99 148.497 1611.95 160.256L1620.87 155.734ZM1613.03 122.117C1613.03 110.837 1615.26 100.542 1619.66 91.1582L1610.61 86.9103C1605.54 97.7178 1603.03 109.477 1603.03 122.117H1613.03ZM1619.65 91.1732C1624.08 81.8091 1630.42 74.5436 1638.68 69.2473L1633.29 60.8285C1623.38 67.181 1615.81 75.913 1610.61 86.8953L1619.65 91.1732ZM1638.69 69.2415C1646.88 63.9658 1657.15 61.1849 1669.77 61.1849V51.1849C1655.67 51.1849 1643.41 54.306 1633.28 60.8343L1638.69 69.2415ZM1669.77 61.1849C1684.99 61.1849 1696.68 65.9694 1705.38 75.2193L1712.66 68.369C1701.79 56.8065 1687.31 51.1849 1669.77 51.1849V61.1849ZM1705.38 75.2193C1713.76 84.1322 1718.7 101.767 1718.7 129.921H1728.7C1728.7 101.385 1723.85 80.2685 1712.66 68.369L1705.38 75.2193ZM1723.7 124.921H1644.37V134.921H1723.7V124.921ZM1639.39 130.37C1640.21 139.428 1642.28 147.08 1645.96 152.957L1654.44 147.657C1651.9 143.593 1650.09 137.655 1649.35 129.473L1639.39 130.37ZM1645.99 153.004C1649.64 158.702 1654.54 163.23 1660.6 166.568L1665.42 157.808C1660.77 155.244 1657.12 151.851 1654.41 147.609L1645.99 153.004ZM1660.65 166.595C1667 170.001 1675.09 171.498 1684.56 171.498V161.498C1676.01 161.498 1669.74 160.123 1665.37 157.782L1660.65 166.595ZM1684.56 171.498C1696.88 171.498 1710.53 168.65 1725.43 163.151L1721.97 153.77C1707.82 158.989 1695.38 161.498 1684.56 161.498V171.498ZM1718.7 158.461V182.69H1728.7V158.461H1718.7ZM1643.91 115.468H1689.8V105.468H1643.91V115.468ZM1694.8 110.468C1694.8 98.4356 1692.82 88.6253 1687.79 82.2202L1679.93 88.3931C1682.82 92.0836 1684.8 99.0475 1684.8 110.468H1694.8ZM1687.82 82.2581C1683.02 76.0161 1676.53 72.735 1668.72 72.735V82.735C1673.33 82.735 1676.93 84.5018 1679.9 88.3552L1687.82 82.2581ZM1668.72 72.735C1660.33 72.735 1653.36 76.3116 1648.11 83.0524L1656.01 89.1918C1659.46 84.7498 1663.59 82.735 1668.72 82.735V72.735ZM1648.13 83.0257C1642.96 89.5848 1640.07 98.768 1638.93 109.963L1648.88 110.973C1649.92 100.734 1652.46 93.6869 1655.99 89.2185L1648.13 83.0257ZM1839.84 187H1834.84V192H1839.84V187ZM1839.84 162.887H1844.84L1835.35 160.682L1839.84 162.887ZM1822.71 183.156L1820 178.953L1819.99 178.96L1819.98 178.967L1822.71 183.156ZM1761.56 172.556L1757.54 175.53L1757.54 175.536L1757.55 175.543L1761.56 172.556ZM1763.07 76.3372L1767.13 79.2612L1767.14 79.25L1763.07 76.3372ZM1816.19 57.6992L1814.93 62.5383L1814.98 62.5502L1815.02 62.5612L1816.19 57.6992ZM1839.84 72.0271L1836.36 75.6211L1844.84 83.8193V72.0271H1839.84ZM1839.84 3.06673V-1.93327H1834.84V3.06673H1839.84ZM1874.43 3.06673H1879.43V-1.93327H1874.43V3.06673ZM1874.43 187V192H1879.43V187H1874.43ZM1839.84 92.5289H1844.84V90.633L1843.58 89.2137L1839.84 92.5289ZM1792.19 92.0629L1787.75 89.7658L1787.75 89.7732L1787.74 89.7806L1792.19 92.0629ZM1791.73 152.287L1787.44 154.852L1787.45 154.88L1787.47 154.907L1791.73 152.287ZM1825.86 157.529L1828.75 161.61L1828.75 161.606L1828.76 161.602L1825.86 157.529ZM1839.84 143.201L1843.91 146.097L1844.84 144.796V143.201H1839.84ZM1844.84 187V162.887H1834.84V187H1844.84ZM1835.35 160.682C1831.24 169.045 1826.09 175.034 1820 178.953L1825.42 187.359C1833.32 182.27 1839.58 174.746 1844.32 165.092L1835.35 160.682ZM1819.98 178.967C1814.01 182.862 1806.76 184.912 1798.02 184.912V194.912C1808.38 194.912 1817.6 192.458 1825.44 187.345L1819.98 178.967ZM1798.02 184.912C1783.75 184.912 1773.15 179.75 1765.57 169.569L1757.55 175.543C1767.2 188.503 1780.91 194.912 1798.02 194.912V184.912ZM1765.58 169.581C1757.77 159.028 1753.63 144.833 1753.63 126.543H1743.63C1743.63 146.306 1748.11 162.786 1757.54 175.53L1765.58 169.581ZM1753.63 126.543C1753.63 107.243 1758.24 91.5932 1767.13 79.2612L1759.02 73.4132C1748.65 87.7955 1743.63 105.617 1743.63 126.543H1753.63ZM1767.14 79.25C1775.78 67.1904 1787.67 61.1849 1803.38 61.1849V51.1849C1784.61 51.1849 1769.62 58.6142 1759.01 73.4243L1767.14 79.25ZM1803.38 61.1849C1807.68 61.1849 1811.52 61.6511 1814.93 62.5383L1817.45 52.8601C1813.09 51.7282 1808.39 51.1849 1803.38 51.1849V61.1849ZM1815.02 62.5612C1818.44 63.3814 1821.73 64.6822 1824.91 66.4785L1829.83 57.7729C1825.87 55.5311 1821.7 53.8808 1817.36 52.8373L1815.02 62.5612ZM1824.91 66.4785C1827.96 68.202 1831.77 71.1793 1836.36 75.6211L1843.31 68.4332C1838.43 63.7113 1833.93 60.0877 1829.83 57.7729L1824.91 66.4785ZM1844.84 72.0271V3.06673H1834.84V72.0271H1844.84ZM1839.84 8.06673H1874.43V-1.93327H1839.84V8.06673ZM1869.43 3.06673V187H1879.43V3.06673H1869.43ZM1874.43 182H1839.84V192H1874.43V182ZM1843.58 89.2137C1838.53 83.5108 1833.44 79.2575 1828.28 76.9108L1824.14 86.0144C1827.52 87.5506 1831.52 90.6748 1836.09 95.8441L1843.58 89.2137ZM1828.28 76.9108C1823.4 74.692 1818.34 73.5504 1813.16 73.5504V83.5504C1816.83 83.5504 1820.48 84.3503 1824.14 86.0144L1828.28 76.9108ZM1813.16 73.5504C1807.66 73.5504 1802.62 74.8919 1798.22 77.7257C1793.85 80.5445 1790.4 84.6557 1787.75 89.7658L1796.63 94.3601C1798.65 90.4619 1801.02 87.8167 1803.64 86.1314C1806.23 84.461 1809.34 83.5504 1813.16 83.5504V73.5504ZM1787.74 89.7806C1782.73 99.5492 1780.32 110.885 1780.32 123.631H1790.32C1790.32 112.147 1792.49 102.438 1796.64 94.3453L1787.74 89.7806ZM1780.32 123.631C1780.32 136.121 1782.54 146.665 1787.44 154.852L1796.02 149.721C1792.37 143.619 1790.32 135.059 1790.32 123.631H1780.32ZM1787.47 154.907C1792.71 163.421 1800.55 167.887 1810.48 167.887V157.887C1804.1 157.887 1799.44 155.286 1795.99 149.666L1787.47 154.907ZM1810.48 167.887C1816.9 167.887 1823.02 165.665 1828.75 161.61L1822.97 153.447C1818.6 156.537 1814.47 157.887 1810.48 157.887V167.887ZM1828.76 161.602C1834.4 157.583 1839.44 152.387 1843.91 146.097L1835.76 140.305C1831.84 145.819 1827.57 150.175 1822.96 153.456L1828.76 161.602ZM1844.84 143.201V92.5289H1834.84V143.201H1844.84Z" fill="#DCA413" mask="url(#path-5-outside-3_0_1)"/>
</svg>
